<?xml version="1.0" encoding="utf-8"?>
<!-- Generator: Adobe Illustrator 19.1.1, SVG Export Plug-In . SVG Version: 6.00 Build 0)  -->
<svg version="1.1" id="Layer_1" xmlns="http://www.w3.org/2000/svg" xmlns:xlink="http://www.w3.org/1999/xlink" x="0px" y="0px"
	 viewBox="0 0 576 576" style="enable-background:new 0 0 576 576;" xml:space="preserve">
<style type="text/css">
	.st0{fill:url(#SVGID_1_);}
	.st1{fill:#FAEEEA;}
	.st2{fill:#3F2021;}
	.st3{fill:#D14124;}
	.st4{fill:#2BC9AF;}
</style>
<radialGradient id="SVGID_1_" cx="278.1638" cy="216.1502" r="266.0542" gradientUnits="userSpaceOnUse">
	<stop  offset="0" style="stop-color:#FFFFFF"/>
	<stop  offset="2.009511e-002" style="stop-color:#F7FDFC"/>
	<stop  offset="0.1625" style="stop-color:#C1EFE8"/>
	<stop  offset="0.3065" style="stop-color:#93E4D6"/>
	<stop  offset="0.4494" style="stop-color:#6EDAC8"/>
	<stop  offset="0.591" style="stop-color:#51D3BD"/>
	<stop  offset="0.7307" style="stop-color:#3CCDB5"/>
	<stop  offset="0.8681" style="stop-color:#2FCAB1"/>
	<stop  offset="1" style="stop-color:#2BC9AF"/>
</radialGradient>
<path class="st0" d="M267.7,353.2l0.1,10.6l-3.9,2L267.7,353.2z M365.8,303.5l0.4,10.2l0,0L365.8,303.5L365.8,303.5z M267,299.7
	l-25.3,26.7l-0.1,6.6l25.4-31.6L267,299.7z M267.1,307.8l-4.8,5.9l-19.4,34l2.2,9.5l-0.1,2.2l22.1-45.4L267.1,307.8z M267.3,325.2
	l-20.5,49.3l9.1-4.6l11.5-32.7L267.3,325.2z M266.9,292l2.2-7.9c0,0,1.3-24.8-4.9-36.8c-2.6-5.1-6.7-11-10.1-15.4l-11.7,14.4
	l0.6,2.9l-1.2,71.3l25.1-26.5L266.9,292z M267.5,337.9l-11.2,31.8l7.4-3.7l4-13.6L267.5,337.9z M267.2,314.5L245,360l-0.5,15.7l2-1
	l20.8-50.1L267.2,314.5z M241.5,339.6l0,1.9l1.4,5.8l18.5-32.4L241.5,339.6z M401.8,295.6l0.3-0.2l-0.9-1.2L401.8,295.6z
	 M248.7,224.9c-0.8,1.2-1.5,2.4-2.1,3.6l1.3,1l-4.3,5.2c-1.5,3.6-2.2,6-2.3,6.3l0,0.2l10.3-12.7
	C249.9,226.3,248.7,224.9,248.7,224.9z M437.4,190.4l26.2-0.6l-23.3-3.4l-8.8,0.8l-4.2,0.8L437.4,190.4z M434.3,186.7l5-0.5
	l-1.3-0.2L434.3,186.7z M410.4,191.1l26-0.6l-9.7-2.4L410.4,191.1z M256.6,215.3c-0.5,0.5-1,1-1.5,1.5
	C255.5,216.3,256,215.8,256.6,215.3L256.6,215.3z M458.5,195.9l-21.1-5.2l-27.1,0.7l10.4,2.5L458.5,195.9z M447.6,200.7l-27.1-6.6
	l-20.7-1.1l-4.1,0.8L447.6,200.7z M396.4,282.6l4.4,10.7l1.5,2.1l6.5-3.3l-12.5-10.8L396.4,282.6z M419.2,193.8l-10-2.4l-0.4,0
	l-8,1.5L419.2,193.8z M292.6,268.5L292.6,268.5c-0.1-0.5-0.1-1-0.2-1.4l0,0C292.5,267.6,292.6,268,292.6,268.5z M293.1,273.9
	L293.1,273.9l-0.1-2.4l0,0L293.1,273.9z M293.6,282.8L293.6,282.8l-0.2-3.8l0,0L293.6,282.8z M293.3,277.9L293.3,277.9l-0.2-3l0,0
	L293.3,277.9z M292.9,270.7L292.9,270.7c-0.1-0.6-0.1-1.1-0.2-1.6l0,0C292.8,269.7,292.9,270.2,292.9,270.7z M292.1,264.9
	L292.1,264.9c-0.1-0.4-0.1-0.7-0.2-1.1l0,0C292,264.1,292,264.5,292.1,264.9z M291.8,263.4L291.8,263.4c-0.1-0.3-0.1-0.7-0.2-1l0,0
	C291.7,262.7,291.8,263,291.8,263.4z M266.3,208.7c-0.2,0.1-0.4,0.2-0.6,0.3l0,0C265.9,208.9,266.1,208.8,266.3,208.7L266.3,208.7z
	 M293.7,284.2l0.2,3.2l0,0L293.7,284.2L293.7,284.2z M293.9,289.2l-0.1-1l0,0L293.9,289.2L293.9,289.2z M306.3,205.4l0-1.8l-0.1-0.1
	l0,1.8L306.3,205.4z M295.2,313.6l1.6,29.9l0,0L295.2,313.6L295.2,313.6z M262.2,210.9c-0.9,0.6-1.9,1.2-2.7,1.9l0,0
	C260.3,212.2,261.2,211.5,262.2,210.9L262.2,210.9z M259.2,213c-0.8,0.7-1.7,1.4-2.4,2.1l0,0C257.6,214.4,258.4,213.7,259.2,213
	L259.2,213z M294.4,297.8L294.4,297.8l-0.4-7l0,0L294.4,297.8z M265.5,209.1c-1.1,0.5-2.1,1.1-3.1,1.7l0,0
	C263.4,210.2,264.4,209.6,265.5,209.1L265.5,209.1z M294.5,299.8l0.7,12.9l0,0L294.5,299.8L294.5,299.8z M296.9,344.4l0.2,4.5l0,0
	L296.9,344.4L296.9,344.4z M292.4,266.6c0-0.2-0.1-0.4-0.1-0.7l0,0C292.3,266.1,292.3,266.4,292.4,266.6L292.4,266.6z M434,257.9
	l12.2,15.2l6.8-3.4l-5-3.6L434,257.9z M453.2,269.4l0.3-0.2l-1-0.6L453.2,269.4z M434,279.2l3.7-1.9l-10.2-8.8L434,279.2z
	 M469.9,260.9l0.4-0.2l-2.8-1.6L469.9,260.9z M430.9,237.7l30.2,27.7l8.6-4.4l-3.7-2.9L430.9,237.7z M415.6,136.1l-13.4,4.2L417,136
	L415.6,136.1z M414,246.2l13.1,21.6l10.9,9.4l1.6-0.8l-17.9-25.7L414,246.2z M422.2,251l17.6,25.3l6.1-3.1l-12.5-15.6L422.2,251z
	 M412.7,141.5l24-5.9l-3.5,0.1L412.7,141.5z M415,228.5l36.9,39.6l1.9,1.1l7.1-3.6l-31-28.4L415,228.5z M435,233.9l31,24.1l4.5,2.6
	l9-4.6l-8.3-5.4L435,233.9z M322.6,167.2l-0.1,0.4l26.5,1.5l-11.2-2.7l-13.8,0.4l-1.1,0.3L322.6,167.2z M257,144.3l15.9,5.9
	l22.4,5.5l5.7-4.9L257,144.3z M388.1,178.4l26.3,3.9l32.2-7.3l-94.8-5.5L388.1,178.4z M447.5,174.8l6.2-1.4l-57.8-8.5l-57.1,1.5
	l11.6,2.8L447.5,174.8z M479.9,255.9l1.3-0.7l-8.3-3.8L479.9,255.9z M409,183.5l4.7-1.1l-23.1-3.4L409,183.5z M417.2,185.7l-0.4,0.1
	L417.2,185.7L417.2,185.7z M378.3,177.2l22.2,8.2l7.9-1.8l-20.4-5L378.3,177.2z M407.9,267.2l7.7,21.4l3.8-2l-5.4-13.3L407.9,267.2z
	 M403.5,262.7l-0.5-0.4l7.9,25.3l2,2.4l2.4-1.2l-7.8-22L403.5,262.7z M329.5,158.7l8-2.5l-24.7-3.7L329.5,158.7z M346.3,160.3
	l8.7-1.5l-2.1-0.3L346.3,160.3z M425.7,184.2l-1-0.1l-7,1.6l0.1,0L425.7,184.2z M414.4,273.9l5.2,12.7l4.2-2.1l-0.9-1.9L414.4,273.9
	z M395.5,269.6l0.8,11.3l12.7,11l2.5-1.3l-0.9-2.9L395.5,269.6z M411.8,290.5l0.8-0.4l-1.6-1.9L411.8,290.5z M468.6,176.3l-7.6-0.4
	l-35.6,8.1l1.1,0.2L468.6,176.3z M336.9,166.1l-5.3-1.3l-1.4,0.2l-5.2,1.5L336.9,166.1z M428.8,281.9l0.9-0.4l-1.7-1.3L428.8,281.9z
	 M442.8,152.9l-40.4-2.3l-45.9,8.2l12.6,1.9L442.8,152.9z M394.4,164.6l-25.3-3.7l-36.9,3.8l5.6,1.4L394.4,164.6z M416.7,259.2
	l10.9,20.5l2.3,1.6l3.9-2l-6.9-11.4L416.7,259.2z M353.5,158.3l2.3,0.3l45.6-8.1l-17.2-1L353.5,158.3z M424,284.3l0.4-0.2l-1-1.1
	L424,284.3z M419.1,273.9l3.9,8.4l1.6,1.6l3.9-2l-1.1-2.1L419.1,273.9z M331.5,164.5l36.6-3.8l-12.4-1.8L344,161L331.5,164.5
	L331.5,164.5z M470.6,175.9l-6-0.9l-2.7,0.6l7.8,0.5L470.6,175.9z M391.6,214.5l1.6,0.9l-0.6-1.2l-1-0.5L391.6,214.5z M403.7,247.7
	l4.9,4.2l-5.6-12.1l-3.3-1.9L403.7,247.7z M414.1,273.3l8.4,8.6l-3.8-8.2l-6.3-4.5L414.1,273.3z M392.4,213.9l-1-1.8l0.1,1.4
	L392.4,213.9z M412.3,268.7l6.2,4.5l-9.7-20.8l-4.9-4.3L412.3,268.7z M399.6,237.5l3.2,1.9l-4-8.6l-2.8-2L399.6,237.5z M407.7,266.6
	l6,6.1l-1.6-3.9l-4.9-3.5L407.7,266.6z M407.1,265l4.8,3.5l-8.4-20.7l-3.7-3.2L407.1,265z M395.9,228.4l2.7,2l-6.9-14.9l0.2,3.2
	L395.9,228.4z M399,230.7l3.7,2.6l-9.3-17.5l-1.8-1L399,230.7z M393.6,215.7l2.4,1.4l-1-1.7l-2-0.9L393.6,215.7z M407.7,242.3
	l5.5,3.2l-4.6-7.7l-5.2-3.7L407.7,242.3z M403.1,233.6l5.1,3.7l-12-19.8l-2.4-1.4L403.1,233.6z M416.4,258.6l10.1,8.7l-13-21.3
	l-5.6-3.2L416.4,258.6z M392.8,214.1l1.9,0.9l-3.5-5.8l0.2,2.2L392.8,214.1z M399.6,244.1l3.7,3.2l-3.9-9.6l-2.6-1.5L399.6,244.1z
	 M395.1,215.2l2.6,1.2l-6.7-9.6l0.1,1.9L395.1,215.2z M403.2,239.6l4.2,2.4l-4.4-8.2l-3.7-2.7L403.2,239.6z M418.9,273.5l8.2,5.9
	l-10.9-20.6l-6.9-5.9L418.9,273.5z M409.1,252.3l6.8,5.9l-8.3-15.7l-4.2-2.4L409.1,252.3z M393.9,234.2l-1.2-3.9l0.2,3.3
	L393.9,234.2z M393.3,238.7l2.8,2.4l-2-6.5L393,234L393.3,238.7z M378.9,224l-8.6-13.6l-0.5-0.3L378.9,224L378.9,224z M367.9,200.9
	L367.9,200.9l0.2,1.7l0,0L367.9,200.9z M394.3,253l8,8.2l-6.1-19.7l-2.9-2.5L394.3,253z M376.7,190.1l-1.1-7l0,0L376.7,190.1
	L376.7,190.1z M366.2,193.1L366.2,193.1l1.3,4.3l0.3,3.3l0,0l-0.3-3.3L366.2,193.1z M364.5,183.3l3-2.1l-31.5-7.7L364.5,183.3
	L364.5,183.3z M366.1,192.7L366.1,192.7l-0.1-0.2L366.1,192.7z M407.2,266.2l-0.4-1.1l-2.2-1.6L407.2,266.2z M402.7,261.6l0.9,0.9
	l3.1,2.2l-7.3-20.4l-2.9-2.5L402.7,261.6z M396.4,241.4l2.8,2.4l-2.8-7.8l-2.1-1.2L396.4,241.4z M396.7,235.8l2.6,1.5l-3.6-8.7
	l-2.1-1.5L396.7,235.8z M393.4,226.6l2.1,1.5l-3.5-8.7l0.3,3.9L393.4,226.6z M402.5,261.7l-8.1-8.3l0.2,2.6L402.5,261.7z
	 M395.5,269.2l14.9,17.9l-7.8-25l-8.1-5.8L395.5,269.2z M393,226.4l-0.7-2l0.1,1.6L393,226.4z M392.6,229.3l1.6,5.1l2.1,1.2
	l-3.2-8.8l-0.7-0.5L392.6,229.3z M375.6,182.9L375.6,182.9l-0.6-3.6l-0.1-2.6l0,0l0.1,2.6L375.6,182.9z M305.3,165.9l0.2,7.9l0,0
	L305.3,165.9L305.3,165.9z M293,157.7l2.1-1.8L275,151L293,157.7L293,157.7z M305.3,165.6L305.3,165.6l-0.1-2.8L305.3,165.6z
	 M305.5,174.1l0.2,8.6l0.1,0L305.5,174.1L305.5,174.1z M434.2,233.2l35.6,16.4l-47.2-30.5l-16.2-7.5L434.2,233.2z M374.3,176.3
	l0.6-0.4l0,0.5l0,0l0-0.5l2.3,0.8l8.2,1.2l-35.1-8.6l-27.9-1.6l-0.2,0.8L374.3,176.3z M294.6,169.3l1.7,3.2l0.2,4.9l0,0l-0.2-4.9
	L294.6,169.3z M367.8,181l6.2-4.4l-50.8-7.5l10.3,3.6L367.8,181z M291.6,262c-2.6-14-6.9-25.1-11.3-33.4
	C284.6,236.9,289,248,291.6,262L291.6,262z M296.5,177.6l0.3,8.3l0,0L296.5,177.6L296.5,177.6z M322.7,251.1L322.7,251.1l0.3,9.6
	l0.9,5.7l15.6,21.8c-1.2-8.6-3.2-18.6-7-24.5C327.8,256,322.7,251.1,322.7,251.1z M339.3,311.1l-13.6-21.9l0.8,23.3l9.1,16.9
	l3.7-1.9l-0.7-13.7L339.3,311.1z M339.7,288.7L324,267l1.1,7.3l0.5,14.4l13.7,22.1l1.6-6C341,304.7,340.8,297.5,339.7,288.7z
	 M305.7,183l0.2,9.5l0.1,0.1L305.7,183L305.7,183z M327.1,333.6l8.2-4.2l-8.9-16.5L327.1,333.6z M405.5,210.9l15.6,7.2l-28.3-18.3
	l0.1,1.3L405.5,210.9z M297.1,192.7l-0.3-6.4l0,0L297.1,192.7L297.1,192.7z M305.9,192.8l0.2,10.4l0.1,0.1L305.9,192.8L305.9,192.8z
	 M430,236.9l34.4,20.1L434,233.4l-15.8-7.3L430,236.9z M421.8,250.5l11.1,6.5l-3.2-4l-12.3-8.8L421.8,250.5z M396.4,217.3l3.3,1.9
	l-1.7-2.5l-2.7-1.2L396.4,217.3z M402.4,218.5l5.4,2.5l-14.3-15.3l-2.3-1L402.4,218.5z M417,243.5l12.2,8.7L405.6,223l-5-2.9
	L417,243.5z M405.8,222.8l7.9,4.6l-5.5-5.9l-5.5-2.5L405.8,222.8z M408.8,237.7l7.6,5.4l-16.3-23.4l-3.4-2L408.8,237.7z
	 M413.7,245.8l7.6,4.4l-4.5-6.5l-7.7-5.5L413.7,245.8z M400.2,219.5l4.9,2.9l-3-3.7l-3.7-1.7L400.2,219.5z M391,206.3l7.2,10.3
	l3.7,1.7L391,204.8l-0.1,0.2L391,206.3z M393,205.2l-1.4-1.5l-0.4,0.7L393,205.2z M429.9,252.8l18.2,13l3.1,1.8L414.3,228l-8.1-4.7
	L429.9,252.8z M397.9,207.4l6.6,3.1l-11.6-9l-0.5,0.9L397.9,207.4z M414.5,227.8l14.5,8.5l-11.5-10.6l-8.7-4L414.5,227.8z
	 M417.7,225.6l15.5,7.2l-27.8-21.6l-6.9-3.2L417.7,225.6z M408.3,221.3l8.6,4l-19.1-17.6l-3.7-1.7L408.3,221.3z M445.7,264.5
	l-15.3-10.9l3.1,3.8L445.7,264.5z M452.3,268.9l-0.6-0.6l-1.5-0.9L452.3,268.9z M393.6,205.4l3.6,1.6l-4.9-4.5l-0.5,0.9L393.6,205.4
	z M368.1,203L368.1,203l0.5,5.3l0.8,1.2l0.5,0.3l-1.3-2.1L368.1,203z M188.9,188.4L188.9,188.4l-44,147.7c1.6,2.1,3.2,4.2,4.9,6.2
	l1.1-1.4L188.9,188.4z M160,329.9l28.9-140l0-0.3l-37.6,150.9L160,329.9z M188.1,189.6l-48.8,138.5c1.8,2.6,3.6,5.2,5.4,7.7
	l43.6-146.6L188.1,189.6z M186.9,191.6l-53.1,127.9c1.7,2.9,3.5,5.7,5.3,8.5l48.4-137.4L186.9,191.6z M184.3,195.6L128.5,310
	c1.6,3.1,3.3,6.2,5.1,9.2l52.5-126.5L184.3,195.6z M413,71.7c-1.1-0.8-2.1-1.6-3.2-2.4l-80.3,33.3L413,71.7z M186.4,169.5l-2.4-0.8
	v-1.9l-5.4-2.1V162l8.1-8.7l-1-0.6l-0.1-1.8l-5.1-1.9v-2.8l16.6-18.9l10.7,3.8l12.7-14.3l33,12.9l0,0l152.4-63.2
	C375.1,44.9,337.5,32.2,297,32.2c-104.9,0-190,85.1-190,190c0,23.3,4.2,45.6,11.9,66.3l69.9-107.2L186.4,169.5z M157.2,350.8
	c1.4,1.5,2.8,3,4.2,4.4l2-12.1L157.2,350.8z M179.3,323.8l-3.4,4.1l-3.8,37.4c0.9,0.8,1.8,1.5,2.7,2.3l2.1-10.3L179.3,323.8z
	 M163.8,342.8l-2.1,12.7c1.7,1.7,3.4,3.3,5.1,5l3.4-25.5L163.8,342.8z M170.4,334.6l-3.5,26.1c1.6,1.5,3.2,3,4.9,4.4l3.7-36.9
	L170.4,334.6z M370.2,160.8l25.7,3.8l81.5-2.1c-0.9-2.6-1.8-5.1-2.7-7.7l-30.3-1.8L370.2,160.8z M180.6,304.9l3.1-43.6l1.4-6.4
	l2.3-31.9l0.7-15.4l-10.2,100.6L180.6,304.9z M167.2,321.2l21.6-129l0-0.8l-28.5,138L167.2,321.2z M176.6,320.7l3.1-3.8l0.4-5.1
	l-3,3.6L176.6,320.7z M200.2,384.5l0.3-25.3L200.2,384.5L200.2,384.5z M444.4,152.8l28.3-3c-1.5-3.7-3.1-7.3-4.9-10.8l-64.3,11.4
	L444.4,152.8z M186.3,249.3l0.8-18.1l-1.6,21.9L186.3,249.3z M172.9,314.2L188.6,196l0.1-1.8l-21.2,126.6L172.9,314.2z M157.3,344.4
	l7.5-9.3l1-6.1l-7.2,8.7L157.3,344.4z M171.4,327l4.9-6l0.5-5.3l-4.7,5.7L171.4,327z M165.1,334.8l6-7.4l0.8-5.7l-5.7,7L165.1,334.8
	z M177.6,308.5l10.7-105.2l0.2-4.5l-15.3,115.1L177.6,308.5z M471.4,250.4l10.1,4.7l2.9-1.5c0.3-1.8,0.6-3.7,0.8-5.6l-61-28.2
	L471.4,250.4z M418,135.8l41.6-11.8c-0.3-0.4-0.5-0.9-0.8-1.3l-42.3,13.2L418,135.8z M474.6,154.5c-0.6-1.5-1.2-3-1.8-4.5l-26.9,2.8
	L474.6,154.5z M421.8,194.2l28.1,6.9l36.4,4.9c-0.1-1.1-0.2-2.2-0.3-3.3l-26.2-6.4L421.8,194.2z M438.3,190.7l21.5,5.3l25.5,1.3
	c-0.2-1.4-0.4-2.9-0.6-4.3L465,190L438.3,190.7z M249.6,136.5L434.4,91c-5.6-5.8-11.5-11.3-17.7-16.4l-166.7,61.6L249.6,136.5z
	 M486,202.3c-0.2-1.6-0.4-3.2-0.6-4.8l-24.3-1.3L486,202.3z M471.4,175.7l9.4-1.7c-0.2-0.8-0.5-1.7-0.7-2.5l-14.8,3.4L471.4,175.7z
	 M484.7,192.7c-0.2-1-0.3-2.1-0.5-3.1l-17.7,0.4L484.7,192.7z M454.3,173.2l24.7-5.6c-0.5-1.6-1-3.3-1.5-4.9l-80.1,2.1L454.3,173.2z
	 M440.3,186.1l42.4-4.1c-0.3-1.4-0.6-2.8-0.9-4.1l-43.1,8L440.3,186.1z M465,189.8l19.1-0.5c-0.4-2.4-0.9-4.7-1.4-7l-41.5,4
	L465,189.8z M486.6,210c-0.1-1.3-0.2-2.6-0.3-3.8l-34.1-4.6L486.6,210z M392.8,199.5l29.9,19.4l62.5,28.9c0-0.2,0.1-0.3,0.1-0.5
	l-92.6-48.9L392.8,199.5z M246.7,139.2l208.7-21.8c-3.2-4.9-6.7-9.6-10.4-14.2l-197.3,35.1L246.7,139.2z M405.9,143.4l-20.9,5.9
	l17.5,1l65.2-11.6c-0.7-1.3-1.3-2.7-2-4l-27.9,0.7L405.9,143.4z M392.7,198l92.7,48.9c0.5-3.6,0.8-7.1,1.1-10.8L392.6,197L392.7,198
	z M248.1,137.9l196.8-35c-3.3-4.1-6.7-8-10.3-11.8l-185.4,45.7L248.1,137.9z M392.5,196l94.3,32.9c0,0,0-0.1,0-0.1l-94.3-32.9
	L392.5,196z M486.9,228.5c0-1,0.1-2,0.1-2.9l-90.9-28.7L486.9,228.5z M392.5,195.5l94.5,29.9c0-1,0-2.1,0-3.1c0-2.2-0.1-4.4-0.1-6.6
	l-94.4-21L392.5,195.5z M394.9,193.9l-2.4,0.4l94.3,20.9c-0.1-1.7-0.1-3.3-0.2-5l-36.8-9L394.9,193.9z M392.6,196.7l93.9,39.2
	c0.2-2.2,0.3-4.5,0.4-6.7l-94.3-32.9L392.6,196.7z M245.7,140.1l0.4,0.1l155.7-4l54.8-17.1c-0.3-0.5-0.7-1-1-1.5l-209.2,21.8
	L245.7,140.1z M158.3,338.3l-5.9,7.1c0.7,0.8,1.4,1.6,2.1,2.4l2.4-3L158.3,338.3z M437.8,135.3l24.9-6.1c-0.3-0.5-0.6-1.1-0.9-1.6
	l-27.6,7.9L437.8,135.3z M255.9,143.9l45.3,6.7l1.9-1.6l8.6,3.2l26.4,3.9l24.8-7.7l-112.7-6.5L255.9,143.9z M465.6,134.5
	c-0.9-1.7-1.8-3.5-2.8-5.2l-23.8,5.9L465.6,134.5z M120.7,293.1c0.9,2.2,1.8,4.3,2.7,6.4l49.4-86.4L120.7,293.1z M249.5,141.5
	l114.1,6.6l37.4-11.6l-154.2,4L249.5,141.5z M183.2,197.3l-8,12.2l-51.6,90.3c1.5,3.4,3.1,6.7,4.8,9.9L183.2,197.3z"/>
<polygon class="st1" points="186.1,192.7 188.9,186.1 184.3,195.6 "/>
<path class="st1" d="M188.7,185.3L119.1,289c0.5,1.4,1.1,2.8,1.6,4.1l52.1-80L188.7,185.3z"/>
<polygon class="st1" points="188.9,188.4 189,188.3 189,188.2 188.9,188.5 "/>
<polygon class="st1" points="187.6,190.5 188.9,186.6 186.9,191.6 "/>
<polygon class="st1" points="188.4,189.2 189,187.2 189,187.2 188.1,189.6 "/>
<polygon class="st1" points="175.2,209.5 183.2,197.3 188.8,185.7 "/>
<path class="st1" d="M189.2,183l-0.4-1.7l-69.9,107.2c0,0.1,0,0.1,0.1,0.2l70.1-104.4L189.2,183z"/>
<polygon class="st1" points="177.2,315.3 180.1,311.8 180.6,304.9 177.9,308.2 "/>
<path class="st1" d="M149.8,342.3c0.2,0.2,0.4,0.5,0.6,0.7l0.5-2.1L149.8,342.3z"/>
<polygon class="st1" points="172.2,321.4 176.9,315.7 177.6,308.5 173.2,313.9 "/>
<polygon class="st1" points="158.6,337.8 165.8,329.1 167.2,321.2 160.4,329.4 "/>
<path class="st1" d="M246.6,228.5c-1.2,2.3-2.2,4.4-3,6.3l4.3-5.2L246.6,228.5z"/>
<polygon class="st1" points="166.2,328.7 171.9,321.7 172.9,314.2 167.5,320.8 "/>
<path class="st1" d="M160,329.9l-8.7,10.6l-0.7,2.8c0.6,0.7,1.2,1.4,1.8,2.1l5.9-7.1L160,329.9z"/>
<polygon class="st1" points="175.9,327.9 179.3,323.8 179.8,316.8 176.6,320.7 "/>
<polygon class="st1" points="163.8,342.8 170.1,335 171.1,327.4 165.1,334.8 "/>
<path class="st1" d="M251.6,228.6l-10.3,12.7l1.1,5l11.7-14.4C253.2,230.7,252.4,229.5,251.6,228.6z"/>
<polygon class="st1" points="170.4,334.6 175.6,328.3 176.3,321 171.4,327 "/>
<path class="st1" d="M154.5,347.8c0.5,0.6,1,1.1,1.5,1.7l1-4.6L154.5,347.8z"/>
<path class="st1" d="M164.8,335.2l-7.5,9.3l-1.1,5.3c0.3,0.4,0.7,0.7,1,1.1l6.3-7.7L164.8,335.2z"/>
<polygon class="st1" points="266.9,294 241.8,320.5 241.7,326.4 267,299.7 "/>
<path class="st1" d="M189.1,184.6l0-0.4L119,288.7c0,0.1,0.1,0.2,0.1,0.3l69.6-103.7L189.1,184.6z"/>
<path class="st1" d="M188.8,185.7l0.3-0.6l0-0.4l-0.4,0.7l-15.9,27.8l-49.4,86.4c0,0.1,0.1,0.2,0.1,0.3l51.6-90.3L188.8,185.7z"/>
<path class="st1" d="M188.9,186.1l0.2-0.5l0-0.5l-0.3,0.6l-5.6,11.6l-54.8,112.4c0,0.1,0.1,0.2,0.1,0.3l55.8-114.4L188.9,186.1z"/>
<path class="st1" d="M188.9,186.6l0.1-0.3l0-0.7l-0.2,0.5l-2.7,6.6l-52.5,126.5c0.1,0.1,0.1,0.2,0.2,0.3l53.1-127.9L188.9,186.6z"/>
<path class="st1" d="M189,187.2l0-0.9l-0.1,0.3l-1.4,3.9l-48.4,137.4c0.1,0.1,0.1,0.2,0.2,0.3l48.8-138.5L189,187.2z"/>
<path class="st1" d="M189,188.2l0-1l-0.6,2.1l-43.6,146.6c0.1,0.1,0.1,0.2,0.2,0.2l43.9-147.6L189,188.2z"/>
<path class="st1" d="M188.9,189.5l0.1-1.2l0,0.1l-38,152.5l-0.5,2.1c0.1,0.1,0.1,0.2,0.2,0.2l0.7-2.8L188.9,189.5z"/>
<path class="st1" d="M158.6,337.8l1.7-8.4l28.5-138l0.1-1.6l-28.9,140l-1.7,8.4l-1.4,6.6l-1,4.6c0.1,0.1,0.1,0.2,0.2,0.2l1.1-5.3
	L158.6,337.8z"/>
<path class="st1" d="M165.1,334.8l1-6.1l1.3-7.9l21.2-126.6l0.1-2l-21.6,129l-1.3,7.9l-1,6.1l-1.3,8l-2,12.1
	c0.1,0.1,0.1,0.1,0.2,0.2l2.1-12.7L165.1,334.8z"/>
<path class="st1" d="M171.4,327l0.8-5.7l1-7.5l15.3-115.1l0.1-2.8l-15.7,118.2l-1,7.5l-0.8,5.7l-1,7.6l-3.4,25.5
	c0.1,0.1,0.2,0.1,0.2,0.2l3.5-26.1L171.4,327z"/>
<path class="st1" d="M176.6,320.7l0.5-5.3l0.7-7.2l10.2-100.6l0.2-4.3l-10.7,105.2l-0.7,7.2l-0.5,5.3l-0.7,7.2l-3.7,36.9
	c0.1,0.1,0.2,0.1,0.2,0.2l3.8-37.4L176.6,320.7z"/>
<polygon class="st1" points="185.5,253.2 187.1,231.3 187.5,223 185.1,254.9 "/>
<polygon class="st1" points="267,304.9 267,301.5 241.6,333.1 241.5,339.6 261.3,314.9 "/>
<polygon class="st1" points="267.1,307.8 267,305.4 262.3,313.7 "/>
<path class="st1" d="M200.2,384.5l0,1.1c0,0,0,0,0,0L200.2,384.5L200.2,384.5z"/>
<path class="st1" d="M291.6,262.4L291.6,262.4c0-0.1,0-0.3-0.1-0.4l0,0C291.6,262.1,291.6,262.2,291.6,262.4z"/>
<polygon class="st1" points="267,305.4 267,304.9 261.3,314.9 242.8,347.3 242.9,347.6 262.3,313.7 "/>
<polygon class="st1" points="267.2,314 245,359.4 245,360 267.2,314.5 "/>
<path class="st1" d="M291.9,263.8L291.9,263.8c0-0.1,0-0.3-0.1-0.4l0,0C291.9,263.5,291.9,263.6,291.9,263.8z"/>
<path class="st1" d="M292.1,264.9c0,0,0,0.1,0,0.1l0,0C292.1,265,292.1,264.9,292.1,264.9L292.1,264.9z"/>
<polygon class="st1" points="267.3,324.6 246.5,374.7 246.8,374.5 267.3,325.2 "/>
<path class="st1" d="M292.4,267.1L292.4,267.1c0-0.2-0.1-0.4-0.1-0.5l0,0C292.4,266.8,292.4,266.9,292.4,267.1z"/>
<polygon class="st1" points="267.5,337.2 255.9,369.9 256.3,369.7 267.5,337.9 "/>
<polygon class="st1" points="267.7,352.4 263.6,366 263.9,365.8 267.7,353.2 "/>
<path class="st1" d="M292.7,269.1L292.7,269.1c0-0.2,0-0.4-0.1-0.6l0,0C292.7,268.7,292.7,268.9,292.7,269.1z"/>
<path class="st1" d="M292.9,270.9l0,0.6l0,0L292.9,270.9c0-0.1,0-0.2,0-0.2l0,0C292.9,270.8,292.9,270.9,292.9,270.9z"/>
<polygon class="st1" points="293.2,274.9 293.2,274.9 293.1,273.9 293.1,273.9 "/>
<polygon class="st1" points="293.4,279 293.4,279 293.3,277.9 293.3,277.9 "/>
<polygon class="st1" points="293.7,284.2 293.7,284.2 293.6,282.8 293.6,282.8 "/>
<polygon class="st1" points="294,290.9 294,290.8 293.9,289.2 293.9,289.2 "/>
<polygon class="st1" points="294.5,299.8 294.5,299.7 294.4,297.8 294.4,297.8 "/>
<polygon class="st1" points="296.9,186.3 297.1,192.7 302.2,199.8 306.1,203.2 305.9,192.8 "/>
<polygon class="st1" points="306.1,203.5 302.9,200.7 306.1,205.2 "/>
<polygon class="st1" points="304.3,158.1 295.1,155.9 293,157.7 293.3,161.4 305.3,165.6 305.2,162.8 "/>
<polygon class="st1" points="296.5,177.6 296.8,186 305.9,192.4 305.7,183 "/>
<polygon class="st1" points="294.5,169 294.6,169.3 296.3,172.5 296.5,177.4 305.6,182.7 305.5,174.1 "/>
<polygon class="st1" points="293.3,161.7 293.8,167.7 294.3,168.6 305.5,173.8 305.3,165.9 "/>
<polygon class="st1" points="301.3,150.6 303.1,150.9 303.1,149 "/>
<polygon class="st1" points="303.1,152.2 303.1,151.1 301,150.8 295.3,155.7 304.2,157.9 303.1,152.3 "/>
<polygon class="st1" points="366.2,193.1 367.5,197.3 367.9,200.6 377.8,206.4 377.2,198.2 "/>
<polygon class="st1" points="377.8,207.2 377.8,206.7 367.9,200.9 368.1,202.7 "/>
<polygon class="st1" points="364.5,185.9 376.7,190.1 375.6,183.1 367.5,181.2 364.5,183.3 "/>
<polygon class="st1" points="378.4,216.2 370.3,210.4 378.9,224 "/>
<polygon class="st1" points="368.1,203 368.6,207.7 369.9,209.8 378.4,215.9 377.8,207.5 "/>
<polygon class="st1" points="375.6,182.9 375,179.2 374.9,176.7 374,176.5 367.8,181 "/>
<polygon class="st1" points="364.5,186.5 364.5,187.7 366,192.5 366.1,192.7 377.2,197.9 376.8,190.8 "/>
<polygon class="st1" points="374.3,176.3 374.9,176.4 374.9,175.9 "/>
<polygon class="st1" points="364.5,186.1 364.5,186.3 376.8,190.5 376.8,190.4 "/>
<path class="st2" d="M339.3,248.6l6.9,7.1l-9.1-22.3c-0.8,0.6-1.6,1.3-2.5,2L339.3,248.6z"/>
<polygon class="st2" points="338.6,313.7 339.3,327.5 347,323.5 339.3,311.1 "/>
<path class="st2" d="M362.7,295.2l2.9,3.5l-0.2-4.4c0,0-0.2-4.4-0.9-11.1l-7.7-16.4l-9.9-10.1L362.7,295.2z"/>
<path class="st2" d="M330.2,239.7c-2.6,2.7-4.9,5.7-6.4,8.9l18.4,22l-8.6-27.5L330.2,239.7z"/>
<path class="st2" d="M337.3,233.3l9.4,22.9l9.8,10l-15.3-32.4l-2.1-1.8C338.5,232.3,337.9,232.8,337.3,233.3z"/>
<polygon class="st2" points="350.9,281.1 362.2,294.6 346.4,256.3 339.5,249.2 "/>
<polygon class="st2" points="365.7,299.2 363,296 365.8,302.8 "/>
<path class="st2" d="M341.4,233.6l8.2,7l-6.3-11.6c-0.7,0.5-1.8,1.2-3.1,2.1L341.4,233.6z"/>
<path class="st2" d="M357,266.7l6,6.2c-0.6-3.8-1.4-7.8-2.4-11.8l-10.7-19.8l-8.2-7.1L357,266.7z"/>
<path class="st2" d="M339.7,288.7c1.1,8.8,1.3,16,1.3,16l-1.6,6l7.9,12.6l9.8-5l-3.1-9.8L339.7,288.7z"/>
<path class="st2" d="M323.6,248.8c-0.3,0.7-0.6,1.5-0.9,2.2c0,0,5,5,9.9,12.6c3.7,5.9,5.8,15.8,7,24.5l14.2,19.7l-11.5-36.7
	L323.6,248.8z"/>
<path class="st2" d="M340.9,233.2l-0.9-2c-0.2,0.2-0.5,0.4-0.7,0.5L340.9,233.2z"/>
<path class="st2" d="M364.4,282.5c-0.3-2.7-0.8-5.8-1.3-9.1l-5.8-5.9L364.4,282.5z"/>
<polygon class="st2" points="342.7,271.7 354.2,308.5 360.2,316.8 362.9,315.4 350.7,281.3 "/>
<path class="st2" d="M330.3,239.5l3,3.1l-1.5-4.7C331.4,238.4,330.8,238.9,330.3,239.5z"/>
<polygon class="st2" points="357.3,318.3 359.9,316.9 354.4,309.3 "/>
<path class="st2" d="M333.7,243l5.1,5.2l-4.5-12.5c-0.8,0.7-1.5,1.3-2.3,2.1L333.7,243z"/>
<path class="st2" d="M344.4,228.3c0,0-0.3,0.2-0.9,0.6l6.6,12.2l5.8,5C353,238.9,349.3,232.6,344.4,228.3z"/>
<path class="st2" d="M360.4,260.1c-1.2-4.6-2.6-9.2-4.3-13.5l-5.6-4.9L360.4,260.1z"/>
<polygon class="st2" points="342.5,271.1 350.5,280.6 339.1,248.8 333.9,243.5 "/>
<polygon class="st2" points="362.5,295.4 351.2,281.8 363.2,315.3 366.3,313.7 365.8,303.5 "/>
<path class="st3" d="M200.5,359.2l2.7-14.4l2.9-91.2l1.8-11.7l3-79.5l-1-18.8l-0.6-1.7l-0.2-2.7l-1.3-4.9v-3.1l-10.7-3.8l2.1,8.5
	l0.1,3.1l0.9,2l0.4,18.4l-3.2,80.9l-2.1,11.5l-3.7,91.8l-2.6,14.4l-0.6,20.4c3.8,2.6,7.6,5.1,11.6,7.5l0-1.1L200.5,359.2z"/>
<path class="st2" d="M256.6,215.3c-0.5,0.5-1,1-1.5,1.5c-2.5,2.6-4.6,5.3-6.3,8.1c0,0,0,0,0,0c0,0,1.2,1.4,2.9,3.7
	c0.7,1,1.6,2.1,2.5,3.3c3.3,4.5,7.4,10.3,10.1,15.4c6.2,12,4.9,36.8,4.9,36.8l-2.2,7.9l0,2l0.1,5.7l0,1.7l0,3.4l0,0.5l0,2.3l0.1,6.2
	l0,0.6l0.1,10.1l0,0.6l0.2,12l0,0.7l0.2,14.5l0,0.8l0.1,10.6l29.3-14.9l-0.2-4.5L256.6,215.3z"/>
<path class="st2" d="M291.9,263.8c0-0.1-0.1-0.3-0.1-0.4c-0.1-0.3-0.1-0.7-0.2-1c0-0.1,0-0.3-0.1-0.4c-2.6-14-6.9-25.1-11.3-33.5
	c-6.9-13.3-13.9-19.8-14-19.8c-0.2,0.1-0.4,0.2-0.6,0.3l26.4,56c0,0,0-0.1,0-0.1C292,264.5,292,264.1,291.9,263.8z"/>
<path class="st2" d="M259.2,213c-0.8,0.7-1.7,1.4-2.4,2.1l40.1,128.3l-1.6-29.9L259.2,213z"/>
<path class="st2" d="M293.6,282.8l-0.2-3.8l-0.1-1.1l-0.2-3l-0.1-1l-0.1-2.4l0-0.6c0-0.1,0-0.1,0-0.2c-0.1-0.5-0.1-1.1-0.2-1.6
	c0-0.2-0.1-0.4-0.1-0.6c-0.1-0.5-0.1-0.9-0.2-1.4c0-0.2-0.1-0.3-0.1-0.5c0-0.2-0.1-0.5-0.1-0.7l-26.7-56.8c-1.1,0.5-2.1,1.1-3.1,1.7
	l31.5,76.6l-0.2-3.2L293.6,282.8z"/>
<path class="st2" d="M294.4,297.8l-0.4-6.9l-0.1-1.6l-0.1-1.1L262.2,211c-0.9,0.6-1.9,1.2-2.7,1.9l35.8,99.8l-0.7-12.9L294.4,297.8z
	"/>
<polygon class="st3" points="314.2,177.8 311.8,172 313.8,177.7 "/>
<polygon class="st3" points="389.4,212.5 390.5,213.1 385.4,201.9 385,201.7 "/>
<polygon class="st3" points="363.1,252.3 384.1,270.4 352.1,225.9 342.3,218.9 "/>
<polygon class="st3" points="246.1,140.2 245.7,140.1 246.4,139.4 239.3,140.2 238.7,140.4 "/>
<polygon class="st3" points="375.8,223.9 352.6,210.4 394.3,253 393.3,239 "/>
<polygon class="st3" points="389.7,213.4 391.1,214.2 390.7,213.4 389.5,212.9 "/>
<polygon class="st3" points="391.9,218.7 391.7,215.4 391.3,214.6 389.9,213.8 "/>
<polygon class="st3" points="297.1,348.9 298.1,348.4 296.9,344.5 "/>
<polygon class="st3" points="385.2,201.6 382.9,196.7 384.9,201.4 "/>
<polygon class="st3" points="342,218.3 351.6,225.2 332.5,198.7 328.2,196.1 "/>
<path class="st3" d="M235.5,144.7l30.3,64.3c0.2-0.1,0.4-0.2,0.6-0.3l0,0c0,0,7,6.5,14,19.8c4.4,8.4,8.7,19.5,11.3,33.4
	c0,0.1,0,0.3,0.1,0.4c0.1,0.3,0.1,0.7,0.2,1c0,0.1,0.1,0.3,0.1,0.4c0.1,0.4,0.1,0.7,0.2,1.1c0,0.1,0,0.1,0,0.2l32.8,69.7l2.2-1.1
	l-0.7-20.6L235.5,144.7z"/>
<polygon class="st3" points="394.4,253.4 351.8,209.9 340.4,203.3 369.4,238 394.5,256 "/>
<polygon class="st3" points="368.1,202.7 367.9,200.9 314.2,169.6 313.9,169.7 345.3,192.2 "/>
<path class="st3" d="M343.5,228.9c0.6-0.4,0.9-0.6,0.9-0.6c4.8,4.3,8.6,10.7,11.4,17.8l6.6,5.7l-20.7-33.3l-6.4-4.6L343.5,228.9z"/>
<polygon class="st3" points="318.3,190.1 319.5,190.8 314.4,178.2 314,178 "/>
<polygon class="st3" points="249.9,136.3 248.2,136.9 249.6,136.5 "/>
<polygon class="st3" points="387.1,202.4 383.3,196.2 383.2,196.2 386.4,202.1 "/>
<polygon class="st3" points="370,238.7 395.5,269.2 394.6,256.3 "/>
<polygon class="st3" points="327.9,195.7 332.2,198.2 319.5,180.5 318.1,179.9 "/>
<polygon class="st3" points="386,201.9 383,196.2 383,196.2 385.5,201.7 "/>
<polygon class="st3" points="367.5,197.3 366.2,193.1 314.8,169.4 314.5,169.5 367.9,200.6 "/>
<polygon class="st3" points="390.9,213.2 391.5,213.5 391.4,212.1 386.2,202.3 385.7,202.1 "/>
<polygon class="st3" points="319.2,180.1 312.1,170.2 312.1,170.3 317.8,179.5 "/>
<polygon class="st3" points="391.5,213.8 391.1,213.6 391.4,214.4 391.6,214.5 "/>
<polygon class="st3" points="396.4,282.6 396.3,281.3 385.5,271.9 400.8,293.3 "/>
<polygon class="st3" points="296.8,343.4 298.4,348.3 306.2,344.3 295.2,313.6 "/>
<polygon class="st3" points="344.1,191.6 313.6,169.8 313.4,169.8 332.5,186.3 "/>
<polygon class="st3" points="317,189.3 318,189.9 313.6,177.8 313.4,177.7 "/>
<polygon class="st3" points="374.9,176.7 375,179.2 375.6,182.9 393,187.1 400.5,185.4 378.3,177.2 "/>
<polygon class="st3" points="376.7,190.1 380.5,191.4 380.1,190.1 380.4,190 380.4,190 382.3,189.5 386.2,188.7 386.2,188.7 
	392.4,187.3 375.6,183.1 "/>
<polygon class="st3" points="331.7,185.9 313.1,169.9 313,170 326.1,183.3 "/>
<polygon class="st3" points="326.9,221.1 330.2,223.9 323.5,205.4 321.6,204 "/>
<polygon class="st3" points="391.5,225.6 392.6,229.3 392.4,226.3 "/>
<polygon class="st3" points="237.1,141 236.9,141.1 255.9,143.9 250.3,141.8 "/>
<polygon class="st3" points="384,201 382.8,197.8 383.8,200.9 "/>
<polygon class="st3" points="236.5,141.2 236.4,141.3 273,150.2 257,144.3 "/>
<polygon class="st3" points="303.1,151.1 303.1,152.2 303.1,152.3 304.2,157.9 319.9,161.7 329.5,158.7 312.8,152.5 "/>
<polygon class="st3" points="387.1,211.5 387.8,211.8 384.1,201.3 383.9,201.2 "/>
<polygon class="st3" points="387.2,211.9 388,212.4 387.9,212.1 387.2,211.8 "/>
<polygon class="st3" points="391.4,225.2 392.4,225.9 392.3,224.3 388.2,212.8 387.3,212.3 "/>
<path class="st3" d="M235.4,145.2l26.9,65.6c1-0.6,2.1-1.2,3.1-1.7L235.4,145.2z"/>
<polygon class="st3" points="325.4,183 312.7,170 312.7,170.1 322.2,181.5 "/>
<polygon class="st3" points="313.5,177.5 311.8,172.6 313.3,177.4 "/>
<polygon class="st3" points="392.2,223.4 391.9,219.5 389.5,213.6 388.5,213 "/>
<polygon class="st3" points="388.4,212.6 389.4,213.2 389.2,212.7 388.2,212.3 "/>
<polygon class="st3" points="238,140.7 237.7,140.8 249.5,141.5 246.7,140.5 "/>
<path class="st3" d="M235.3,146.4l21.4,68.7c0.8-0.7,1.6-1.4,2.4-2.1L235.3,146.4z"/>
<polygon class="st3" points="321.7,181.3 312.4,170.2 312.4,170.2 319.7,180.3 "/>
<polygon class="st3" points="248.1,137.9 249.2,136.9 246.1,137.7 242.9,138.9 "/>
<polygon class="st3" points="392.8,199.5 392.7,198.3 387.1,195.4 386.6,195.5 "/>
<polygon class="st3" points="303.1,150.9 311.7,152.1 303.1,149 "/>
<polygon class="st3" points="388.1,211.9 389,212.4 384.7,201.6 384.4,201.5 "/>
<path class="st3" d="M332.1,237.7c0.8-0.7,1.5-1.4,2.3-2.1l-4-11.3l-3.3-2.8L332.1,237.7z"/>
<polygon class="st3" points="332.3,186.5 326.6,183.8 351.9,209.7 374.8,223 "/>
<polygon class="st3" points="384.5,201.2 382.9,197.2 384.3,201.1 "/>
<path class="st3" d="M235.4,145.8l24,67.1c0.9-0.7,1.8-1.3,2.7-1.9L235.4,145.8z"/>
<path class="st3" d="M340.2,231.1c1.3-0.9,2.3-1.6,3.1-2.1l-8.3-15.4l-4.5-3.2L340.2,231.1z"/>
<polygon class="st3" points="339.7,202.9 333.1,199 352.3,225.7 368.6,237.4 "/>
<polygon class="st3" points="392.3,202.6 384.9,195.8 384.7,195.9 391.8,203.5 "/>
<polygon class="st3" points="384.4,304.5 390.5,301.3 372.9,283.4 "/>
<polygon class="st3" points="322.1,181.7 320,180.7 332.7,198.5 339.3,202.3 "/>
<polygon class="st3" points="305.7,183 305.9,192.5 321.1,203.4 316.8,189.5 "/>
<polygon class="st3" points="352.7,226.3 384.9,271.1 396.3,280.9 395.5,269.6 369.2,238.2 "/>
<polygon class="st3" points="392.9,199.8 386.2,195.5 385.8,195.6 393,201.2 "/>
<polygon class="st3" points="294.6,169.3 294.5,169 235.7,141.9 296.5,177.3 296.3,172.5 "/>
<polygon class="st3" points="392.9,201.4 385.5,195.7 385.2,195.8 392.4,202.4 "/>
<path class="st3" d="M334.6,235.5c0.8-0.7,1.7-1.4,2.5-2l-2.1-5l-4.3-3.7L334.6,235.5z"/>
<polygon class="st3" points="392.5,196 392.5,195.9 389.7,194.9 389.4,195 "/>
<polygon class="st3" points="321.9,192.2 324.1,193.4 316.3,179.1 315.6,178.7 "/>
<polygon class="st3" points="368.1,203 346.4,192.9 369.5,209.5 368.6,208.2 "/>
<polygon class="st3" points="316.1,178.7 311.9,171 315.4,178.4 "/>
<polygon class="st3" points="235.7,142.1 296.8,186 296.5,177.6 "/>
<polygon class="st3" points="392.5,195.5 392.4,194.6 391.9,194.5 390.3,194.8 "/>
<polygon class="st3" points="235.5,144.2 326.4,312.5 325.6,289.2 "/>
<polygon class="st3" points="315,178.2 311.9,171.5 314.5,178 "/>
<polygon class="st3" points="293,157.7 275,151 236,141.4 236,141.4 293.3,161.4 293,157.7 "/>
<polygon class="st3" points="322.6,167.2 322.8,167 321.2,167.5 322.5,167.5 "/>
<polygon class="st3" points="330.3,209.9 334.7,213.1 324.3,193.9 322.1,192.6 "/>
<path class="st3" d="M356.1,246.6c1.7,4.3,3.1,9,4.3,13.5l12.1,22.5l18.3,18.7l1.9-1l-29.7-47.8L356.1,246.6z"/>
<polygon class="st3" points="374.9,176.4 377.2,176.8 374.9,175.9 "/>
<polygon class="st3" points="305.3,165.9 305.5,173.8 313,177.2 309.9,167.5 "/>
<polygon class="st3" points="319.9,191 321.5,192 315.2,178.6 314.7,178.3 "/>
<polygon class="st3" points="305.5,174.1 305.7,182.7 316.7,189.1 313.1,177.6 "/>
<polygon class="st3" points="325.9,183.5 322.6,182 339.9,202.7 351.1,209.2 "/>
<polygon class="st3" points="333.5,172.6 323.2,169 318.3,168.3 317.2,168.6 "/>
<polygon class="st3" points="384.7,271.2 363.6,253 392.9,300.2 401.8,295.6 401.2,294.3 "/>
<polygon class="st3" points="322.2,168.6 322.4,167.8 320.5,167.7 318.9,168.1 "/>
<polygon class="st3" points="326.6,207.3 329.8,209.6 321.7,192.4 320.1,191.4 "/>
<path class="st3" d="M335.2,228.2l4.1,3.5c0.3-0.2,0.5-0.4,0.7-0.5l-9.9-21.1l-3.3-2.4L335.2,228.2z"/>
<polygon class="st3" points="321.5,203.6 323.4,205 318.1,190.2 317.1,189.7 "/>
<polygon class="st3" points="366.3,313.7 369.4,312.1 365.8,303.5 "/>
<path class="st3" d="M363.1,273.3c0.5,3.3,1,6.4,1.3,9.1l12.2,26l7.5-3.8l-11.8-21.9L363.1,273.3z"/>
<polygon class="st3" points="297.1,192.7 296.9,186.3 235.6,142.4 302.2,199.8 297.1,192.7 "/>
<polygon class="st3" points="390.3,203.9 384,196 383.9,196 388.9,203.3 "/>
<polygon class="st3" points="391,206.3 390.9,204.9 391,204.8 390.7,204.4 389.2,203.7 "/>
<polygon class="st3" points="324,267 235.5,143.8 325.6,288.7 325.1,274.3 "/>
<path class="st3" d="M322.7,251.1L322.7,251.1c0.2-0.8,0.5-1.5,0.9-2.2l-88.1-105.4l88.4,123l-0.9-5.7L322.7,251.1z"/>
<polygon class="st3" points="388.5,203.1 383.6,196.1 383.5,196.1 387.5,202.6 "/>
<polygon class="st3" points="330.5,224.2 334.8,227.9 326.4,207.5 323.9,205.7 "/>
<polygon class="st3" points="317.4,179.3 311.9,170.5 316.5,178.9 "/>
<polygon class="st3" points="391.2,208.7 391,206.8 388.7,203.5 387.7,203 "/>
<polygon class="st3" points="324.5,193.7 327.4,195.4 317.7,179.7 316.7,179.2 "/>
<polygon class="st3" points="386.9,211.8 386.9,211.6 386,211.2 "/>
<polygon class="st3" points="391.2,204.3 391.6,203.7 384.4,195.9 384.3,196 390.8,204.2 "/>
<polygon class="st3" points="392.6,196.7 392.6,196.3 388.9,195.1 388.7,195.1 "/>
<polygon class="st3" points="323.7,205.3 326.2,207 319.7,191.2 318.4,190.4 "/>
<polygon class="st3" points="377,224.6 393.3,238.7 393,234 "/>
<polygon class="st3" points="305.9,192.8 306.2,203.2 326.6,220.8 321.2,203.8 "/>
<polygon class="st3" points="392.7,198 392.6,197 388.3,195.2 387.5,195.3 "/>
<polygon class="st3" points="391.4,211.5 391.2,209.2 387.3,202.8 386.6,202.5 "/>
<polygon class="st3" points="335.1,213.4 341.5,218 327.7,195.9 324.7,194.1 "/>
<polygon class="st3" points="246.7,139.2 247.7,138.3 241.6,139.3 240.3,139.8 "/>
<polygon class="st3" points="377.8,207.5 378.4,215.9 391,224.9 387,212.1 383.7,210.2 "/>
<path class="st3" d="M237.8,389.7l-3.9-0.7l3.9-2v-0.1l-3.9,2v-7.9l10.6-5.4L245,360l0-0.6l0.1-2.2l-2.2-9.5l-0.1-0.4l-1.4-5.8
	l0-1.9l0.1-6.5l0.1-6.6l0.1-5.9l1.2-71.3l-0.6-2.9l-1.1-5l0-0.2c0.1-0.2,0.8-2.7,2.3-6.3c0.8-1.9,1.8-4,3-6.3
	c0.6-1.2,1.3-2.4,2.1-3.6c0,0,0,0,0,0c1.7-2.8,3.9-5.5,6.3-8.1c0.5-0.5,1-1,1.5-1.5l-23.1-73.9l-1.2-2.9l0.9-0.4l0,0l0.3-0.1l20-8.3
	l0,0l-33-12.9v3.7l2,4.7l-0.3,3.2l1,4l0.8,16.2l-2.3,82.4l-1.6,12l-2.6,93.9l-1.8,13.5L215,381v11.3l-0.8,0.9
	c7.6,3.7,15.5,6.9,23.6,9.5V389.7z"/>
<path class="st3" d="M292.3,265.9c0,0.2,0.1,0.4,0.1,0.7c0,0.2,0.1,0.3,0.1,0.5c0.1,0.5,0.1,0.9,0.2,1.4c0,0.2,0.1,0.4,0.1,0.6
	c0.1,0.5,0.1,1.1,0.2,1.6c0,0.1,0,0.2,0,0.2l0,0.6l0.1,2.4l0.1,1l0.2,3l0.1,1.1l0.2,3.8l0.1,1.4l0.2,3.3l21.5,52.2l9.4-4.8
	L292.3,265.9z"/>
<polygon class="st3" points="293.9,288.2 293.9,289.2 294,290.8 294.4,297.8 294.5,299.7 295.2,312.7 306.5,344.2 315.1,339.8 "/>
<polygon class="st3" points="304.3,158.1 305.2,162.8 305.3,165.6 309.8,167.2 309.8,167.2 309.1,165 310.7,164.6 319.5,161.8 "/>
<polygon class="st3" points="293.3,161.7 235.8,141.6 294.3,168.6 293.8,167.7 "/>
<polygon class="st3" points="381.4,208.8 377.8,206.7 377.8,207.2 "/>
<polygon class="st3" points="364.5,185.9 364.5,183.3 364.5,183.3 336.1,173.5 316.8,168.7 316.5,168.8 316.1,169 "/>
<polygon class="st3" points="364.5,186.3 364.5,186.1 315.7,169.1 315.5,169.2 "/>
<polygon class="st3" points="378.4,216.2 378.9,224 378.9,224 369.8,210.1 345.2,192.4 333.2,186.8 376,223.7 393,233.7 
	392.7,230.3 391.2,225.3 "/>
<polygon class="st3" points="376.8,190.4 376.8,190.5 380.7,191.9 380.6,191.7 "/>
<polygon class="st3" points="364.5,187.7 364.5,186.5 315.9,169.6 366.1,192.7 366,192.5 "/>
<polygon class="st3" points="376.8,190.8 377.2,197.9 383.5,200.8 382.1,196.4 382.1,196.4 380.8,192.2 "/>
<polygon class="st3" points="377.2,198.2 377.8,206.4 383.8,209.9 386.8,211.3 383.6,201.1 "/>
<path class="st3" d="M364.5,283.2c0.8,6.7,0.9,11.1,0.9,11.1l0.2,4.4l9,10.7l1.8-0.9L364.5,283.2z"/>
<path class="st3" d="M235.5,143l88.2,105.6c1.5-3.2,3.9-6.2,6.4-8.9L235.5,143z"/>
<polygon class="st3" points="365.7,299.2 365.8,302.8 369.6,312 374.4,309.6 "/>
<path class="st3" d="M331.9,237.9l-5.2-16.7l-20.5-17.7l0,1.8l-0.1-0.2l-3.3-4.5l-67.3-58l94.7,96.8
	C330.8,238.9,331.4,238.4,331.9,237.9z"/>
<path class="st3" d="M335.4,228.7l1.9,4.5c0.6-0.5,1.2-0.9,1.8-1.4L335.4,228.7z"/>
<path class="st3" d="M371.9,281.9l-11.3-20.8c1,4.1,1.8,8.1,2.4,11.8L371.9,281.9z"/>
<path class="st1" d="M191.8,343.4l3.7-91.8l2.1-11.5l3.2-80.9l-0.4-18.4l-0.9-2l-0.1-3.1l-2.1-8.5l-16.6,18.9v2.8l5.1,1.9l0.1,1.8
	l1,0.6l-8.1,8.7v2.8l5.4,2.1v1.9l2.4,0.8l2.4,11.7l0.4,1.7l-0.1,1.3l0,0.4l0,0.4l0,0.5l0,0.7l0,0.9l0,0l0,1l0,0.1l-0.1,1.2l0,0.3
	l-0.1,1.6l0,0.8l-0.1,2l-0.1,1.8l-0.1,2.8l-0.2,4.5l-0.2,4.3l-0.7,15.4l-0.4,8.3l-0.8,18.1l-0.8,3.8l-0.4,1.7l-1.4,6.4l-3.1,43.6
	l-0.5,6.9l-0.4,5.1l-0.5,6.9l-2.4,33.6l-2.1,10.3c4.4,3.7,9,7.3,13.8,10.6l0.6-20.4L191.8,343.4z"/>
<path class="st1" d="M215,381l0.7-30.6l1.8-13.5l2.6-93.9l1.6-12l2.3-82.4l-0.8-16.2l-1-4l0.3-3.2l-2-4.7v-3.7l-12.7,14.3v3.1
	l1.3,4.9l0.2,2.7l0.6,1.7l1,18.8l-3,79.5l-1.8,11.7l-2.9,91.2l-2.7,14.4l-0.3,25.3l0,1.2c4.6,2.7,9.3,5.2,14.1,7.6l0.8-0.9V381z"/>
<path class="st1" d="M233.6,138l95.9-35.4l80.3-33.3c-1.3-0.9-2.5-1.8-3.8-2.7l-152.4,63.2L233.6,138z"/>
<polygon class="st1" points="233.5,141.4 233.3,140.7 233.3,140.7 233.3,140.7 233.3,140.7 233.4,140.7 233.4,140.5 234,140.4 
	233.2,138.2 232.3,138.6 "/>
<polygon class="st1" points="344,161 328.4,163.8 331.5,164.5 "/>
<polygon class="st1" points="384.2,149.5 381.5,149.4 348.4,157.6 353.5,158.3 "/>
<polygon class="st1" points="405.9,143.4 382.4,149.2 385,149.3 "/>
<polygon class="st1" points="346.7,157.6 344.2,158.3 347.1,157.6 "/>
<polygon class="st1" points="412.7,141.5 433.1,135.6 417,136 402.2,140.3 375,148.8 381.5,149.1 "/>
<polygon class="st1" points="380.7,149.3 374.3,149 347.3,157.4 347.8,157.5 "/>
<path class="st1" d="M434.1,135.4l27.6-7.9c-0.7-1.2-1.4-2.4-2.1-3.6L418,135.8L434.1,135.4z"/>
<polygon class="st1" points="324.9,166.4 330.1,164.9 319.4,166.1 317.6,166.6 "/>
<polygon class="st1" points="327.5,163.5 327.8,163.6 346.3,160.3 352.9,158.5 347.8,157.7 340.2,159.6 "/>
<polygon class="st1" points="321.2,167.5 322.8,167 324,166.7 316.8,166.9 315.9,167.2 "/>
<polygon class="st1" points="326.5,163.9 327.2,163.7 327,163.7 "/>
<polygon class="st1" points="318.3,168.3 316.3,168 316.7,168.5 317.2,168.6 "/>
<polygon class="st1" points="316.7,168.7 316.5,168.8 316.8,168.7 "/>
<polygon class="st1" points="320.5,167.7 315.9,167.4 316.1,167.7 318.9,168.1 "/>
<polygon class="st1" points="330.8,164.6 327.8,163.9 324.6,164.4 320.6,165.7 "/>
<polygon class="st1" points="242.9,138.9 246.1,137.7 237.1,139.9 "/>
<polygon class="st1" points="236.1,141.2 236.4,141.3 236.5,141.2 "/>
<polygon class="st1" points="235.9,141.4 236,141.4 236,141.4 "/>
<polygon class="st1" points="238.7,140.4 239.3,140.2 236.6,140.5 "/>
<polygon class="st1" points="236.4,140.7 237.7,140.8 238,140.7 "/>
<polygon class="st1" points="236.2,141 236.9,141.1 237.1,141 "/>
<polygon class="st1" points="240.3,139.8 241.6,139.3 236.9,140.2 "/>
<path class="st1" d="M233.6,138l-0.3,0.1l0,0l0.8,2.2l14.2-3.5l1.7-0.6l166.7-61.6c-1.2-1-2.4-2-3.7-2.9l-83.5,30.9L233.6,138z"/>
<path class="st1" d="M475.2,176.6l-47,7.7l10.4,1.5l43.1-8c0-0.1-0.1-0.2-0.1-0.4l-5.6-0.8L475.2,176.6z"/>
<polygon class="st1" points="431.5,187.2 426.2,187.7 427.3,188 "/>
<polygon class="st1" points="434.3,186.7 437.9,186 427.4,184.4 418.7,185.9 425.5,187.5 "/>
<polygon class="st1" points="397.5,190.2 402.5,189.7 401.1,189.4 "/>
<polygon class="st1" points="403.3,189.6 424.7,187.6 418.1,186 411.3,187.1 401.7,189.3 "/>
<polygon class="st1" points="410.4,191.1 426.7,188.1 425.4,187.8 404,189.8 409.2,191.1 "/>
<path class="st1" d="M475.5,176.4l5.7-0.9c-0.1-0.5-0.2-0.9-0.4-1.4l-9.4,1.7L475.5,176.4z"/>
<polygon class="st1" points="426.5,184.1 427.4,184.2 474.1,176.6 468.6,176.3 "/>
<path class="st1" d="M481.6,177.3c0-0.1,0-0.2-0.1-0.2l-2.7-0.2L481.6,177.3z"/>
<polygon class="st1" points="469.6,176.1 473.3,176.3 470.6,175.9 "/>
<polygon class="st1" points="417.8,185.6 418.1,185.7 426.6,184.3 425.7,184.2 "/>
<polygon class="st1" points="417.2,185.8 416.8,185.8 415.3,186.2 417.5,185.8 "/>
<path class="st1" d="M481.5,176.8c-0.1-0.4-0.2-0.7-0.3-1.1l-4.9,0.8L481.5,176.8z"/>
<polygon class="st1" points="392.5,194.4 394.9,193.9 387.9,193 388.1,193.4 "/>
<polygon class="st1" points="390.3,194.8 391.9,194.5 388.2,193.7 388.4,194.2 "/>
<polygon class="st1" points="389.4,195 389.7,194.9 388.5,194.5 388.6,194.7 "/>
<polygon class="st1" points="400.9,192.8 408.9,191.4 390.4,191.8 388.7,192.2 "/>
<polygon class="st1" points="388.6,195 388.7,195.1 388.9,195.1 388.7,195 388.7,195 "/>
<polygon class="st1" points="387.8,192.7 395.7,193.8 399.8,193 387.8,192.4 387.7,192.4 "/>
<polygon class="st1" points="387.5,195.3 388.3,195.2 388.2,195.1 387.5,195.3 "/>
<polygon class="st1" points="408.3,191.1 403.3,189.9 395.6,190.6 391.6,191.5 "/>
<path class="st1" d="M248.2,136.9l-14.2,3.5l-0.7,0.2l0,0.1l0-0.1l3.7-0.7l9-2.2l3.1-0.8l185.4-45.7c-0.1-0.1-0.1-0.1-0.2-0.2
	l-184.8,45.6L248.2,136.9z"/>
<path class="st1" d="M242.9,138.9l-5.8,1l-3.7,0.7l0,0.1l0-0.1l3.5-0.4l4.7-0.8l6.1-1.1l197.3-35.1c-0.1-0.1-0.1-0.1-0.2-0.2
	l-196.8,35L242.9,138.9z"/>
<path class="st1" d="M240.3,139.8l-3.4,0.4l-3.5,0.4l0,0.1l0-0.1l3.2-0.1l2.7-0.3l7.1-0.7l209.2-21.8c-0.1-0.1-0.1-0.2-0.2-0.2
	l-208.7,21.8L240.3,139.8z"/>
<path class="st1" d="M437.8,135.5l27.9-0.7c0-0.1-0.1-0.2-0.1-0.2l-26.7,0.7L437.8,135.5z"/>
<polygon class="st1" points="433.1,135.6 436.6,135.5 437.8,135.3 434.1,135.4 418,135.8 416.5,135.8 415.6,136.1 417,136 "/>
<polygon class="st1" points="236.4,140.7 238,140.7 246.7,140.5 401,136.5 401.8,136.2 246.1,140.2 238.7,140.4 236.6,140.5 
	233.4,140.5 233.4,140.7 233.4,140.5 "/>
<polygon class="st1" points="401.4,150.5 402.5,150.4 385,149.3 382.4,149.2 381.5,149.4 384.2,149.5 "/>
<path class="st1" d="M444.4,153l30.3,1.8c0-0.1-0.1-0.2-0.1-0.3l-28.6-1.7L444.4,153z"/>
<polygon class="st1" points="444.4,152.8 403.5,150.4 402.5,150.6 442.8,152.9 "/>
<polygon class="st1" points="381.5,149.1 375,148.8 374.3,149 380.7,149.3 "/>
<polygon class="st1" points="236.2,141 237.1,141 250.3,141.8 362.9,148.3 363.6,148.1 249.5,141.5 237.7,140.8 236.4,140.7 
	233.4,140.5 233.4,140.7 233.4,140.5 "/>
<polygon class="st1" points="395.9,164.6 370.2,160.8 369.2,160.9 394.4,164.6 "/>
<polygon class="st1" points="369.2,160.6 356.6,158.8 355.8,158.9 368.2,160.7 "/>
<polygon class="st1" points="355,158.8 355.8,158.6 353.5,158.3 348.4,157.6 347.8,157.7 352.9,158.5 "/>
<polygon class="st1" points="454.3,173.2 397.3,164.8 395.9,164.8 453.7,173.4 "/>
<polygon class="st1" points="347.8,157.5 347.3,157.4 346.7,157.6 347.1,157.6 "/>
<polygon class="st1" points="473.3,176.3 475.2,176.4 475.5,176.4 471.4,175.7 465.3,174.8 464.6,175 470.6,175.9 "/>
<path class="st1" d="M476.1,176.7l5.6,0.8c0-0.1,0-0.2-0.1-0.3l-2.7-0.4L476.1,176.7z"/>
<polygon class="st1" points="236.1,141.2 236.5,141.2 257,144.3 301,150.8 303.1,151.1 312.8,152.5 337.6,156.2 338.1,156 
	311.7,152.1 303.1,150.9 301.3,150.6 255.9,143.9 236.9,141.1 236.2,141 233.4,140.5 233.4,140.7 233.4,140.5 "/>
<polygon class="st1" points="337.8,166.1 332.3,164.7 331.5,164.8 336.9,166.1 "/>
<polygon class="st1" points="388.1,178.4 351.7,169.5 350.4,169.4 385.4,178 "/>
<polygon class="st1" points="436.4,190.5 437.4,190.4 427.3,188 426.2,187.7 425.4,187.8 426.7,188.1 "/>
<polygon class="st1" points="459.8,195.9 438.3,190.7 437.3,190.7 458.5,195.9 "/>
<path class="st1" d="M459.8,196.2l26.2,6.4c0-0.1,0-0.2,0-0.3l-24.8-6.1L459.8,196.2z"/>
<polygon class="st1" points="388,178.6 408.5,183.6 409,183.5 390.7,179 "/>
<polygon class="st1" points="350.4,169.2 338.8,166.3 337.8,166.3 349,169.1 "/>
<polygon class="st1" points="330.8,164.6 331.5,164.5 331.5,164.5 328.4,163.8 327.8,163.9 "/>
<polygon class="st1" points="327,163.7 327.2,163.7 327.8,163.6 327.5,163.5 "/>
<polygon class="st1" points="417.5,185.8 418.1,185.7 417.8,185.6 417.7,185.6 417.2,185.7 417.2,185.8 "/>
<polygon class="st1" points="425.5,187.5 418.7,185.9 418.1,186 424.7,187.6 "/>
<polygon class="st1" points="235.9,141.4 236,141.4 275,151 295.1,155.9 304.3,158.1 319.5,161.8 319.9,161.7 304.2,157.9 
	295.3,155.7 273,150.2 236.4,141.3 236.1,141.2 233.4,140.5 233.4,140.7 233.5,140.6 "/>
<path class="st1" d="M389.4,195l-0.9-0.3l0.1,0.3l0.2,0.1l3.6,1.3l94.3,32.9c0-0.1,0-0.2,0-0.3L392.5,196L389.4,195z"/>
<polygon class="st1" points="364.5,186.5 376.8,190.8 380.8,192.2 380.7,191.9 376.8,190.5 364.5,186.3 315.5,169.2 315.2,169.2 
	315.9,169.6 "/>
<polygon class="st1" points="235.8,141.6 293.3,161.7 305.3,165.9 305.3,165.9 309.9,167.5 309.8,167.2 305.3,165.6 305.3,165.6 
	293.3,161.4 236,141.4 235.9,141.4 233.5,140.6 233.4,140.7 233.5,140.6 "/>
<polygon class="st1" points="395.3,215.5 398,216.8 397.7,216.4 395.1,215.2 "/>
<polygon class="st1" points="481.2,255.2 481.5,255 471.4,250.4 472.9,251.3 "/>
<polygon class="st1" points="398.5,217 402.2,218.7 401.8,218.3 398.2,216.6 "/>
<polygon class="st1" points="392.9,214.4 394.9,215.4 394.7,215 392.8,214.1 "/>
<polygon class="st1" points="408.8,221.7 417.5,225.8 416.9,225.2 408.3,221.3 "/>
<polygon class="st1" points="418.3,226.1 434,233.4 433.2,232.7 417.7,225.6 "/>
<polygon class="st1" points="402.7,218.9 408.2,221.5 407.7,221 402.4,218.5 "/>
<polygon class="st1" points="435,233.9 471.3,250.6 469.8,249.6 434.2,233.2 "/>
<polygon class="st1" points="368.1,203 377.8,207.5 383.7,210.2 381.4,208.8 377.8,207.2 368.1,202.7 368.1,202.7 345.3,192.2 
	346.4,192.9 368.1,203 "/>
<polygon class="st1" points="331.7,185.9 326.1,183.3 326.6,183.8 332.3,186.5 "/>
<polygon class="st1" points="314,178 314.4,178.2 314.2,177.8 313.8,177.7 "/>
<polygon class="st1" points="314.7,178.3 315.2,178.6 315,178.2 314.5,178 "/>
<polygon class="st1" points="386,211.2 386.9,211.6 386.8,211.3 383.8,209.9 "/>
<polygon class="st1" points="344.1,191.6 332.5,186.3 333.2,186.8 345.2,192.4 "/>
<polygon class="st1" points="313.4,177.7 313.6,177.8 313.5,177.5 313.3,177.4 "/>
<polygon class="st1" points="316.7,179.2 317.7,179.7 317.4,179.3 316.5,178.9 "/>
<polygon class="st1" points="390.9,213.2 391.1,213.6 391.5,213.8 392.6,214.3 392.4,213.9 391.5,213.5 "/>
<polygon class="st1" points="389.5,212.9 390.7,213.4 390.5,213.1 389.4,212.5 "/>
<polygon class="st1" points="325.4,183 322.2,181.5 322.6,182 325.9,183.5 "/>
<polygon class="st1" points="321.7,181.3 319.7,180.3 320,180.7 322.1,181.7 "/>
<polygon class="st1" points="318.1,179.9 319.5,180.5 319.2,180.1 317.8,179.5 "/>
<polygon class="st1" points="388.2,212.3 389.2,212.7 389,212.4 388.1,211.9 "/>
<polygon class="st1" points="315.6,178.7 316.3,179.1 316.1,178.7 315.4,178.4 "/>
<polygon class="st1" points="387.2,211.8 387.9,212.1 387.8,211.8 387.1,211.5 "/>
<polygon class="st1" points="235.7,141.9 294.5,169 305.5,174.1 305.5,174.1 313.1,177.6 313,177.2 305.5,173.8 305.5,173.8 
	294.3,168.6 235.8,141.6 233.5,140.6 233.4,140.7 233.5,140.6 "/>
<polygon class="st1" points="450.2,267.4 451.8,268.3 451.2,267.6 448.1,265.8 "/>
<polygon class="st1" points="452.5,268.7 453.5,269.3 453.8,269.2 451.9,268.1 "/>
<polygon class="st1" points="422.2,251 433.4,257.5 432.9,257 421.8,250.5 "/>
<polygon class="st1" points="399.7,237.9 403,239.8 402.8,239.4 399.6,237.5 "/>
<polygon class="st1" points="408,242.7 413.5,245.9 413.2,245.5 407.7,242.3 "/>
<polygon class="st1" points="396.8,236.2 399.4,237.7 399.2,237.3 396.7,235.8 "/>
<polygon class="st1" points="434,257.9 447.9,266 445.7,264.5 433.5,257.3 "/>
<polygon class="st1" points="403.4,240 407.6,242.5 407.3,242 403.2,239.6 "/>
<polygon class="st1" points="414,246.2 421.6,250.7 421.3,250.2 413.7,245.8 "/>
<polygon class="st1" points="394.4,234.8 396.5,236 396.3,235.6 394.2,234.4 "/>
<polygon class="st1" points="322.1,192.6 324.3,193.9 324.1,193.4 321.9,192.2 "/>
<polygon class="st1" points="374.8,223 351.9,209.7 352.6,210.4 375.8,223.9 "/>
<polygon class="st1" points="324.7,194.1 327.7,195.9 327.4,195.4 324.5,193.7 "/>
<polygon class="st1" points="328.2,196.1 332.5,198.7 332.2,198.2 327.9,195.7 "/>
<polygon class="st1" points="376,223.7 377,224.6 393,234 394,234.6 393.9,234.2 393,233.7 "/>
<polygon class="st1" points="320.1,191.4 321.7,192.4 321.5,192 319.9,191 "/>
<polygon class="st1" points="318.4,190.4 319.7,191.2 319.5,190.8 318.3,190.1 "/>
<polygon class="st1" points="317.1,189.7 318.1,190.2 318,189.9 317,189.3 "/>
<polygon class="st1" points="339.3,202.3 332.7,198.5 333.1,199 339.7,202.9 "/>
<polygon class="st1" points="351.1,209.2 339.9,202.7 340.4,203.3 351.8,209.9 "/>
<polygon class="st1" points="235.7,142.1 296.5,177.6 296.5,177.6 305.7,183 305.7,183 316.8,189.5 316.7,189.1 305.7,182.7 
	305.6,182.7 296.5,177.4 296.5,177.3 235.7,141.9 233.5,140.6 233.4,140.7 233.5,140.6 "/>
<polygon class="st1" points="403,262.3 403.5,262.7 402.9,262.1 "/>
<polygon class="st1" points="404.6,263.5 406.9,265.1 406.7,264.7 403.6,262.5 "/>
<polygon class="st1" points="394.5,256 369.4,238 370,238.7 394.6,256.3 402.6,262.1 402.5,261.7 402.5,261.7 "/>
<polygon class="st1" points="407.2,265.4 412.1,268.9 411.9,268.5 407.1,265 "/>
<polygon class="st1" points="427.9,280.2 429.6,281.5 429.9,281.3 427.6,279.7 "/>
<polygon class="st1" points="412.5,269.2 418.7,273.6 418.5,273.2 412.3,268.7 "/>
<polygon class="st1" points="419.1,273.9 427.4,279.9 427.2,279.4 418.9,273.5 "/>
<polygon class="st1" points="368.6,237.4 352.3,225.7 352.7,226.3 369.2,238.2 "/>
<polygon class="st1" points="335.4,213.9 341.8,218.5 341.5,218 335.1,213.4 "/>
<polygon class="st1" points="326.8,207.7 330.1,210.1 329.8,209.6 326.6,207.3 "/>
<polygon class="st1" points="342.3,218.9 352.1,225.9 351.6,225.2 342,218.3 "/>
<polygon class="st1" points="330.5,210.4 335,213.6 334.7,213.1 330.3,209.9 "/>
<polygon class="st1" points="321.6,204 323.5,205.4 323.4,205 321.5,203.6 "/>
<polygon class="st1" points="323.9,205.7 326.4,207.5 326.2,207 323.7,205.3 "/>
<polygon class="st1" points="235.6,142.4 296.9,186.3 296.9,186.3 305.9,192.8 305.9,192.8 321.2,203.8 321.1,203.4 305.9,192.5 
	305.9,192.4 296.8,186 296.8,186 235.7,142.1 233.5,140.6 233.4,140.7 233.5,140.6 "/>
<polygon class="st1" points="341.7,234.1 349.9,241.2 349.6,240.6 341.4,233.6 "/>
<polygon class="st1" points="384.9,271.1 385.5,271.9 396.3,281.3 408.8,292 409.1,291.9 396.3,280.9 "/>
<polygon class="st1" points="330.7,224.7 335,228.4 334.8,227.9 330.5,224.2 "/>
<polygon class="st1" points="327.1,221.6 330.3,224.4 330.2,223.9 326.9,221.1 "/>
<polygon class="st1" points="363.6,253 384.7,271.2 384.1,270.4 363.1,252.3 "/>
<polygon class="st1" points="335.2,228.2 335.4,228.7 339.1,231.9 341.2,233.7 340.9,233.2 339.3,231.7 "/>
<polygon class="st1" points="355.9,246.1 350.1,241.1 350.4,241.7 356.1,246.6 362.9,252.5 362.5,251.8 "/>
<polygon class="st1" points="235.6,142.7 302.9,200.7 306.1,203.5 306.2,203.6 326.7,221.2 326.6,220.8 306.2,203.2 306.1,203.2 
	302.2,199.8 235.6,142.4 233.5,140.6 233.4,140.7 233.5,140.6 "/>
<polygon class="st1" points="333.9,243.5 339.1,248.8 338.9,248.2 333.7,243 "/>
<polygon class="st1" points="339.5,249.2 346.4,256.3 346.2,255.7 339.3,248.6 "/>
<polygon class="st1" points="346.9,256.8 356.8,266.9 356.5,266.2 346.7,256.2 "/>
<polygon class="st1" points="372.9,283.4 390.5,301.3 390.8,301.2 372.5,282.6 "/>
<polygon class="st1" points="363,272.9 357,266.7 357.3,267.4 363.1,273.3 372.3,282.7 371.9,281.9 "/>
<polygon class="st1" points="235.5,143 330.2,239.7 333.5,243.1 333.4,242.6 330.3,239.5 235.6,142.7 233.5,140.6 233.4,140.7 
	233.5,140.6 "/>
<polygon class="st1" points="351.2,281.8 362.5,295.4 362.2,294.6 350.9,281.1 "/>
<polygon class="st1" points="342.7,271.7 350.7,281.3 350.5,280.6 342.5,271.1 "/>
<polygon class="st1" points="365.6,298.7 362.7,295.2 363,296 365.7,299.2 374.4,309.6 374.6,309.5 "/>
<polygon class="st1" points="235.5,143.4 323.6,248.8 342.3,271.2 342.1,270.6 323.7,248.6 235.5,143 233.5,140.6 233.4,140.7 
	233.5,140.6 "/>
<polygon class="st1" points="354.4,309.3 359.9,316.9 360.2,316.8 354.2,308.5 "/>
<polygon class="st1" points="235.5,143.8 324,267 339.7,288.7 354,308.6 353.7,307.9 339.6,288.2 323.9,266.4 235.5,143.4 
	233.5,140.6 233.4,140.7 233.5,140.6 "/>
<polygon class="st1" points="235.5,144.2 325.6,289.2 339.3,311.1 347,323.5 347.2,323.4 339.3,310.8 325.6,288.7 235.5,143.8 
	233.5,140.6 233.4,140.7 233.5,140.6 "/>
<polygon class="st1" points="235.5,144.7 326.4,313 335.3,329.5 335.5,329.4 326.4,312.5 235.5,144.2 233.5,140.6 233.4,140.7 
	233.5,140.6 "/>
<polygon class="st1" points="235.4,145.2 265.5,209.1 265.5,209.1 292.2,265.9 292.3,265.9 324.7,334.9 324.9,334.7 292.1,265 
	292.1,265 265.7,209 265.7,209 235.5,144.7 233.5,140.6 233.4,140.7 233.5,140.6 "/>
<polygon class="st1" points="235.4,145.8 262.2,210.9 262.2,211 293.9,288.2 293.9,288.2 315.1,339.8 315.3,339.7 293.8,287.4 
	293.8,287.4 262.4,210.8 262.4,210.8 235.4,145.2 233.5,140.6 233.4,140.7 233.5,140.6 "/>
<polygon class="st1" points="233.3,140.7 233.3,140.7 233.3,140.7 "/>
<polygon class="st1" points="235.3,146.4 259.2,213 259.2,213 295.2,313.6 295.2,313.6 306.2,344.3 306.5,344.2 295.2,312.7 
	295.2,312.7 259.4,212.9 259.4,212.9 235.4,145.8 233.5,140.6 233.4,140.7 233.5,140.6 "/>
<polygon class="st1" points="233.3,140.7 233.3,140.7 233.5,141.4 256.6,215.3 256.6,215.3 296.9,344.4 296.9,344.5 298.1,348.4 
	298.4,348.3 296.8,343.4 296.8,343.4 256.8,215.1 256.8,215.1 235.3,146.4 233.5,140.6 233.4,140.7 233.3,140.7 "/>
<polygon class="st1" points="320.6,165.7 324.6,164.4 314.9,166.2 315,166.3 "/>
<polygon class="st1" points="317.6,166.6 319.4,166.1 315.2,166.5 315.3,166.7 "/>
<polygon class="st1" points="315.9,167.2 316.8,166.9 315.5,166.9 315.7,167.1 "/>
<polygon class="st1" points="326.5,163.9 327,163.7 327.5,163.5 340.2,159.6 314.7,165.9 314.7,165.9 "/>
<path class="st1" d="M401,136.5l-37.4,11.6l-0.7,0.2l-24.8,7.7l-0.5,0.2l-8,2.5l-9.6,3l-0.5,0.1l-8.8,2.7l2.5-0.7l1.3,1.7l29.6-7.3
	l2.5-0.8l0.5-0.2l27-8.4l0.7-0.2l27.2-8.5l13.4-4.2l0.9-0.3l42.3-13.2c-0.7-1.2-1.5-2.3-2.2-3.5l-54.8,17.1L401,136.5z"/>
<path class="st1" d="M436.6,135.5l-24,5.9l-31.1,7.7l-0.8,0.2l-32.9,8.1l-0.6,0.2l-2.9,0.7l-29.6,7.3l0.2,0.2l25.5-6.3l7.6-1.9
	l0.6-0.2l33.1-8.2l0.8-0.2l23.5-5.8l31.9-7.9l1.1-0.3l23.8-5.9c0-0.1-0.1-0.2-0.1-0.2l-24.9,6.1L436.6,135.5z"/>
<path class="st1" d="M401.4,150.5l-45.6,8.1l-0.8,0.1l-8.7,1.5l-18.6,3.3l-0.6,0.1l-0.7,0.1l-11.7,2.1l0.2,0.2l9.7-1.7l3.2-0.6
	l0.6-0.1L344,161l11.8-2.1l0.8-0.1l45.9-8.2l1.1-0.2l64.3-11.4c0-0.1-0.1-0.2-0.1-0.2l-65.2,11.6L401.4,150.5z"/>
<path class="st1" d="M442.8,152.9l-73.7,7.7l-1,0.1l-36.6,3.8l-0.7,0.1l-10.2,1.1l-5.6,0.6l0.2,0.2l4.2-0.4l10.7-1.1l1.4-0.2
	l0.7-0.1l36.9-3.8l1-0.1l74.2-7.7l1.5-0.2l26.9-2.8c0-0.1-0.1-0.2-0.1-0.2l-28.3,3L442.8,152.9z"/>
<path class="st1" d="M394.4,164.6l-56.6,1.5l-1,0l-11.9,0.3l-7.3,0.2l-2.4,0.1l0.2,0.2l1.3,0l7.2-0.2l13.8-0.4l1,0l57.1-1.5l1.5,0
	l80.1-2.1c0-0.1-0.1-0.2-0.1-0.2l-81.5,2.1L394.4,164.6z"/>
<path class="st1" d="M475.2,176.6l0.9,0.1l2.8,0.2l2.7,0.2c0-0.1,0-0.2-0.1-0.3l-5.1-0.3L475.2,176.6z"/>
<polygon class="st1" points="474.1,176.6 475.2,176.4 473.3,176.3 469.6,176.1 461.9,175.6 461,175.8 468.6,176.3 "/>
<polygon class="st1" points="349,169.1 322.5,167.5 321.2,167.5 315.9,167.2 315.7,167.1 315.9,167.4 320.5,167.7 322.4,167.8 
	350.4,169.4 351.7,169.5 446.6,175 447.5,174.8 350.4,169.2 "/>
<path class="st1" d="M465,190l19.7,2.9c0-0.1,0-0.2,0-0.3l-18.2-2.7L465,190z"/>
<polygon class="st1" points="439.2,186.2 440.3,186.1 438.7,185.9 428.2,184.3 427.4,184.4 437.9,186 "/>
<polygon class="st1" points="465,189.8 441.3,186.3 440.3,186.3 463.5,189.8 "/>
<polygon class="st1" points="426.6,184.3 427.4,184.2 426.5,184.1 425.4,183.9 424.7,184 425.7,184.2 "/>
<polygon class="st1" points="385.4,178 377.2,176.8 374.9,176.4 374.9,176.4 374.3,176.3 322.2,168.6 318.9,168.1 316.1,167.7 
	316.3,168 318.3,168.3 323.2,169 374,176.5 374.9,176.7 374.9,176.7 378.3,177.2 388,178.6 390.7,179 413.7,182.4 414.4,182.3 
	388.1,178.4 "/>
<polygon class="st1" points="420.5,193.9 410.2,191.3 409.2,191.4 419.2,193.8 "/>
<path class="st1" d="M449.8,201.3l36.8,9c0-0.1,0-0.2,0-0.3l-34.4-8.4L449.8,201.3z"/>
<polygon class="st1" points="375.6,182.9 367.8,181 333.5,172.6 317.2,168.6 316.7,168.5 316.8,168.7 316.7,168.7 316.8,168.7 
	336.1,173.5 367.5,181.2 375.6,183.1 375.6,183.1 392.4,187.3 393,187.1 375.6,182.9 "/>
<polygon class="st1" points="449.9,201.1 421.8,194.2 420.5,194.1 447.6,200.7 "/>
<polygon class="st1" points="401.1,189.4 402.5,189.7 403.3,189.6 401.7,189.3 "/>
<polygon class="st1" points="409.2,191.1 404,189.8 403.3,189.9 408.3,191.1 "/>
<path class="st1" d="M388.5,194.5L388.5,194.5l1.2,0.4l2.8,1l94.3,32.9c0-0.1,0-0.2,0-0.3l-90.8-31.7L388.5,194.5z"/>
<polygon class="st1" points="364.5,186.1 376.8,190.4 380.6,191.7 380.5,191.4 376.7,190.1 376.7,190.1 364.5,185.9 316.1,169 
	315.7,169.1 "/>
<polygon class="st1" points="398.5,208 405.4,211.2 404.5,210.5 397.9,207.4 "/>
<polygon class="st1" points="406.4,211.6 422.6,219.1 421.2,218.2 405.5,210.9 "/>
<polygon class="st1" points="366.2,193.1 377.2,198.2 383.6,201.1 383.5,200.8 377.2,197.9 366.1,192.7 366.1,192.7 315.9,169.6 
	315.2,169.2 314.8,169.4 366.2,193.1 "/>
<path class="st1" d="M424.2,219.9l61,28.2c0-0.1,0-0.2,0-0.3l-62.5-28.9L424.2,219.9z"/>
<polygon class="st1" points="394.1,205.9 397.8,207.6 397.2,207.1 393.6,205.4 "/>
<polygon class="st1" points="389.2,203.7 390.7,204.4 390.3,203.9 388.9,203.3 "/>
<polygon class="st1" points="390.8,204.2 391.2,204.6 393.5,205.6 393,205.2 391.2,204.3 "/>
<polygon class="st1" points="383.9,201.2 384.1,201.3 384,201 383.8,200.9 "/>
<polygon class="st1" points="385.7,202.1 386.2,202.3 386,201.9 385.5,201.7 "/>
<polygon class="st1" points="384.4,201.5 384.7,201.6 384.5,201.2 384.3,201.1 "/>
<polygon class="st1" points="387.7,203 388.7,203.5 388.5,203.1 387.5,202.6 "/>
<polygon class="st1" points="386.6,202.5 387.3,202.8 387.1,202.4 386.4,202.1 "/>
<polygon class="st1" points="385,201.7 385.4,201.9 385.2,201.6 384.9,201.4 "/>
<polygon class="st1" points="393.8,216.1 396.2,217.5 396,217 393.6,215.7 "/>
<polygon class="st1" points="430.9,237.7 465.9,258.2 464.4,257 430,236.9 "/>
<polygon class="st1" points="467.5,259.1 470.3,260.7 470.6,260.6 466,258 "/>
<polygon class="st1" points="400.6,220 405.6,223 405.2,222.4 400.2,219.5 "/>
<polygon class="st1" points="415,228.5 429.9,237.1 429,236.3 414.5,227.8 "/>
<polygon class="st1" points="396.7,217.8 400.1,219.7 399.7,219.2 396.4,217.3 "/>
<polygon class="st1" points="367.9,200.9 377.8,206.7 381.4,208.8 383.7,210.2 387,212.1 386.9,211.8 386,211.2 383.8,209.9 
	377.8,206.4 367.9,200.6 367.9,200.6 314.5,169.5 314.2,169.6 367.9,200.9 "/>
<polygon class="st1" points="406.2,223.3 414.3,228 413.7,227.4 405.8,222.8 "/>
<polygon class="st1" points="389.9,213.8 391.3,214.6 391.1,214.2 389.7,213.4 "/>
<polygon class="st1" points="388.5,213 389.5,213.6 389.4,213.2 388.4,212.6 "/>
<polygon class="st1" points="391.4,214.4 391.6,214.8 393.4,215.8 393.2,215.4 391.6,214.5 "/>
<polygon class="st1" points="387.3,212.3 388.2,212.8 388,212.4 387.2,211.9 "/>
<polygon class="st1" points="396,228.8 398.8,230.8 398.6,230.4 395.9,228.4 "/>
<polygon class="st1" points="417.4,244.1 429.7,253 429.1,252.3 417,243.5 "/>
<polygon class="st1" points="450.2,267.4 448.1,265.8 429.9,252.8 430.5,253.5 445.7,264.5 447.9,266 452.9,269.6 453,269.6 
	452.3,268.9 "/>
<polygon class="st1" points="409.1,238.2 416.8,243.7 416.4,243.1 408.8,237.7 "/>
<polygon class="st1" points="393.5,227 395.7,228.6 395.5,228.1 393.4,226.6 "/>
<polygon class="st1" points="403.4,234.1 408.6,237.8 408.3,237.3 403.1,233.6 "/>
<polygon class="st1" points="399.2,231.1 402.9,233.8 402.7,233.3 399,230.7 "/>
<polygon class="st1" points="391.4,225.2 391.5,225.6 392.4,226.3 393.2,226.8 393,226.4 392.4,225.9 "/>
<polygon class="st1" points="345.2,192.4 369.8,210.1 370.3,210.4 378.4,216.2 391.2,225.3 391,224.9 378.4,215.9 369.9,209.8 
	369.5,209.5 346.4,192.9 345.3,192.2 313.9,169.7 313.6,169.8 344.1,191.6 "/>
<polygon class="st1" points="399.8,244.6 403.5,247.8 403.3,247.3 399.6,244.1 "/>
<polygon class="st1" points="416.7,259.2 426.9,268 426.5,267.3 416.4,258.6 "/>
<polygon class="st1" points="409.3,252.8 416.2,258.8 415.9,258.1 409.1,252.3 "/>
<polygon class="st1" points="427.5,268.5 437.7,277.3 438,277.2 427.1,267.8 "/>
<polygon class="st1" points="396.6,241.8 399.4,244.3 399.2,243.8 396.4,241.4 "/>
<polygon class="st1" points="403.9,248.2 408.9,252.4 408.6,251.9 403.7,247.7 "/>
<polygon class="st1" points="332.3,186.5 374.8,223 375.8,223.9 393.3,239 396.2,241.5 396.1,241.1 393.3,238.7 377,224.6 
	376,223.7 333.2,186.8 332.5,186.3 313.4,169.8 313.1,169.9 331.7,185.9 "/>
<polygon class="st1" points="407.9,267.2 413.9,273.4 413.7,272.8 407.7,266.6 "/>
<polygon class="st1" points="414.4,273.9 422.8,282.5 422.5,281.8 414.1,273.3 "/>
<polygon class="st1" points="423.4,283 424.4,284.1 424.6,284 423.1,282.4 "/>
<polygon class="st1" points="325.9,183.5 351.1,209.2 351.8,209.9 394.4,253.4 402.5,261.7 402.5,261.7 402.3,261.2 394.3,253 
	352.6,210.4 351.9,209.7 326.6,183.8 326.1,183.3 313,170 312.7,170 325.4,183 "/>
<polygon class="st1" points="403.6,262.5 402.7,261.6 402.9,262.1 403.5,262.7 407.4,266.8 407.2,266.2 404.6,263.5 "/>
<polygon class="st1" points="411,288.2 412.6,290.1 412.8,290 410.9,287.6 "/>
<polygon class="st1" points="322.1,181.7 339.3,202.3 339.7,202.9 368.6,237.4 369.2,238.2 395.5,269.6 410.6,287.7 410.4,287.1 
	395.5,269.2 370,238.7 369.4,238 340.4,203.3 339.9,202.7 322.6,182 322.2,181.5 312.7,170.1 312.4,170.2 321.7,181.3 "/>
<polygon class="st1" points="385.5,271.9 384.9,271.1 352.7,226.3 352.3,225.7 333.1,199 332.7,198.5 320,180.7 319.7,180.3 
	312.4,170.2 312.1,170.2 319.2,180.1 319.5,180.5 332.2,198.2 332.5,198.7 351.6,225.2 352.1,225.9 384.1,270.4 384.7,271.2 
	401.2,294.3 402.1,295.5 402.3,295.4 400.8,293.3 "/>
<polygon class="st1" points="363.1,252.3 342.3,218.9 342,218.3 328.2,196.1 327.9,195.7 318.1,179.9 317.8,179.5 312.1,170.3 
	311.9,170.3 311.9,170.5 317.4,179.3 317.7,179.7 327.4,195.4 327.7,195.9 341.5,218 341.8,218.5 362.5,251.8 362.9,252.5 
	392.7,300.3 392.9,300.2 363.6,253 "/>
<polygon class="st1" points="372.5,282.6 360.4,260.1 350.4,241.7 350.1,241.1 343.5,228.9 335.4,213.9 335.1,213.4 324.7,194.1 
	324.5,193.7 316.7,179.2 316.5,178.9 311.9,170.5 311.9,170.3 311.6,170.4 311.9,171 316.1,178.7 316.3,179.1 324.1,193.4 
	324.3,193.9 334.7,213.1 335,213.6 343.3,229 349.6,240.6 349.9,241.2 360.6,261.1 371.9,281.9 372.3,282.7 384.1,304.6 
	384.4,304.5 372.9,283.4 "/>
<polygon class="st1" points="364.4,282.5 357.3,267.4 357,266.7 341.7,234.1 341.4,233.6 340.2,231.1 330.5,210.4 330.3,209.9 
	322.1,192.6 321.9,192.2 315.6,178.7 315.4,178.4 311.9,171 311.6,170.4 311.5,170.5 311.9,171.5 315,178.2 315.2,178.6 321.5,192 
	321.7,192.4 329.8,209.6 330.1,210.1 340,231.2 340.9,233.2 341.2,233.7 356.5,266.2 356.8,266.9 364.5,283.2 376.4,308.5 
	376.6,308.4 "/>
<polygon class="st1" points="365.8,302.8 363,296 362.7,295.2 346.9,256.8 346.7,256.2 337.3,233.3 335.4,228.7 335.2,228.2 
	326.8,207.7 326.6,207.3 320.1,191.4 319.9,191 314.7,178.3 314.5,178 311.9,171.5 311.5,170.5 311.3,170.5 311.8,172 314.2,177.8 
	314.4,178.2 319.5,190.8 319.7,191.2 326.2,207 326.4,207.5 334.8,227.9 335,228.4 337.1,233.4 346.2,255.7 346.4,256.3 
	362.2,294.6 362.5,295.4 365.8,303.5 365.8,303.5 369.4,312.1 369.6,312 "/>
<polygon class="st1" points="350.9,281.1 339.5,249.2 339.3,248.6 334.6,235.5 330.7,224.7 330.5,224.2 323.9,205.7 323.7,205.3 
	318.4,190.4 318.3,190.1 314,178 313.8,177.7 311.8,172 311.3,170.5 311.1,170.6 311.8,172.6 313.5,177.5 313.6,177.8 318,189.9 
	318.1,190.2 323.4,205 323.5,205.4 330.2,223.9 330.3,224.4 334.4,235.7 338.9,248.2 339.1,248.8 350.5,280.6 350.7,281.3 
	362.9,315.4 363.2,315.3 351.2,281.8 "/>
<polygon class="st1" points="354.2,308.5 342.7,271.7 342.5,271.1 333.9,243.5 333.7,243 332.1,237.7 327.1,221.6 326.9,221.1 
	321.6,204 321.5,203.6 317.1,189.7 317,189.3 313.4,177.7 313.3,177.4 311.8,172.6 311.1,170.6 311,170.6 309.8,167.2 309.8,167.2 
	309.9,167.5 313,177.2 313.1,177.6 316.7,189.1 316.8,189.5 321.1,203.4 321.2,203.8 326.6,220.8 326.7,221.2 331.9,237.9 
	333.4,242.6 333.5,243.1 342.1,270.6 342.3,271.2 353.7,307.9 354,308.6 357,318.4 357.3,318.3 354.4,309.3 "/>
<polygon class="st1" points="397.5,190.2 401.1,189.4 401.7,189.3 411.3,187.1 387.1,191 387.2,191.2 "/>
<polygon class="st1" points="380.4,190 380.4,190 382.3,189.5 "/>
<polygon class="st1" points="387.8,192.4 387.7,192.4 387.7,192.4 "/>
<polygon class="st1" points="391.6,191.5 395.6,190.6 387.3,191.4 387.4,191.6 "/>
<polygon class="st1" points="388.7,192.2 390.4,191.8 387.5,191.9 387.6,192.2 "/>
<path class="st1" d="M453.7,173.4l-6.2,1.4l-0.9,0.2l-32.2,7.3l-0.7,0.2l-4.7,1.1l-0.5,0.1l-7.9,1.8l-7.6,1.7l-0.5,0.1l-6.3,1.4
	l0.9,2.1l28.3-4.6l1.5-0.3l0.4-0.1l0.5-0.1l7-1.6l0.7-0.2l35.6-8.1l0.9-0.2l2.7-0.6l0.7-0.2l14.8-3.4c-0.4-1.3-0.7-2.6-1.1-3.8
	l-24.7,5.6L453.7,173.4z"/>
<path class="st1" d="M475.2,176.4l-1.1,0.2l-46.7,7.6l-0.8,0.1l-8.5,1.4l-0.6,0.1l-2.2,0.4l-28.3,4.6l0.1,0.2l24.1-3.9l6.8-1.1
	l0.6-0.1l8.7-1.4l0.8-0.1l47-7.7l1.1-0.2l4.9-0.8c0-0.1,0-0.2-0.1-0.2l-5.7,0.9L475.2,176.4z"/>
<path class="st1" d="M439.2,186.2l-5,0.5l-8.8,0.8l-0.8,0.1l-21.4,2.1l-0.8,0.1l-5,0.5l-10.4,1l0.1,0.2l8.3-0.8l7.7-0.7l0.8-0.1
	l21.4-2.1l0.8-0.1l5.3-0.5l8.8-0.8l1-0.1l41.5-4c0-0.1,0-0.2-0.1-0.2l-42.4,4.1L439.2,186.2z"/>
<path class="st1" d="M463.5,189.8l-26.2,0.6l-1,0l-26,0.6l-1.2,0l-1,0l-16.7,0.4l-4.3,0.1l0.1,0.2l2.9-0.1l18.5-0.4l0.4,0l1,0
	l27.1-0.7l1,0L465,190l1.5,0l17.7-0.4c0-0.1,0-0.2,0-0.2l-19.1,0.5L463.5,189.8z"/>
<path class="st1" d="M458.5,195.9l-37.9-2l-1.3-0.1l-18.3-1l-12.2-0.6l-1.1-0.1l0.1,0.3l0.1,0l12.1,0.6l20.7,1.1l1.3,0.1l37.9,2
	l1.3,0.1l24.3,1.3c0-0.1,0-0.2,0-0.3l-25.5-1.3L458.5,195.9z"/>
<path class="st1" d="M447.6,200.7l-51.8-6.9l-7.9-1.1l0.1,0.3l7,0.9l54.9,7.4l2.3,0.3l34.1,4.6c0-0.1,0-0.2,0-0.3l-36.4-4.9
	L447.6,200.7z"/>
<path class="st1" d="M388.1,193.4l0.1,0.3l3.7,0.8l0.5,0.1l94.4,21c0-0.1,0-0.2,0-0.3l-94.3-20.9L388.1,193.4z"/>
<path class="st1" d="M390.3,194.8l-2-0.6l0.1,0.3l7.6,2.4l90.9,28.7c0-0.1,0-0.2,0-0.3l-94.5-29.9L390.3,194.8z"/>
<path class="st1" d="M388.7,195.1l-0.1-0.1l-0.4,0.1l0.1,0l4.3,1.8l93.9,39.2c0-0.1,0-0.2,0-0.3l-93.9-39.2L388.7,195.1z"/>
<path class="st1" d="M387.5,195.3L387.5,195.3l-0.4,0l5.6,3l92.6,48.9c0-0.1,0-0.2,0-0.3L392.7,198L387.5,195.3z"/>
<polygon class="st1" points="386.2,195.5 392.9,199.8 421.2,218.2 422.6,219.1 469.8,249.6 471.3,250.6 479.6,256 479.9,255.9 
	472.9,251.3 471.4,250.4 424.2,219.9 422.8,218.9 392.8,199.5 386.6,195.5 "/>
<polygon class="st1" points="466,258 435,233.9 434.2,233.2 406.4,211.6 405.5,210.9 393,201.2 385.8,195.6 385.5,195.7 
	392.9,201.4 404.5,210.5 405.4,211.2 433.2,232.7 434,233.4 464.4,257 465.9,258.2 469.7,261.1 469.9,260.9 467.5,259.1 "/>
<polygon class="st1" points="430,236.9 418.3,226.1 417.7,225.6 398.5,208 397.9,207.4 392.4,202.4 385.2,195.8 384.9,195.8 
	392.3,202.6 397.2,207.1 397.8,207.6 416.9,225.2 417.5,225.8 429,236.3 429.9,237.1 460.8,265.6 461.1,265.4 430.9,237.7 "/>
<polygon class="st1" points="451.9,268.1 415,228.5 414.5,227.8 408.8,221.7 408.3,221.3 394.1,205.9 393.6,205.4 391.8,203.5 
	384.7,195.9 384.4,195.9 391.6,203.7 393,205.2 393.5,205.6 407.7,221 408.2,221.5 413.7,227.4 414.3,228 451.2,267.6 451.8,268.3 
	452.3,268.9 453,269.6 453.2,269.4 452.5,268.7 "/>
<polygon class="st1" points="433.5,257.3 430.5,253.5 429.9,252.8 406.2,223.3 405.8,222.8 402.7,218.9 402.4,218.5 391.2,204.6 
	390.8,204.2 384.3,196 384,196 390.3,203.9 390.7,204.4 391,204.8 401.8,218.3 402.2,218.7 405.2,222.4 405.6,223 429.1,252.3 
	429.7,253 432.9,257 433.4,257.5 445.9,273.2 446.1,273 434,257.9 "/>
<polygon class="st1" points="421.8,250.5 417.4,244.1 417,243.5 400.6,220 400.2,219.5 398.5,217 398.2,216.6 391,206.3 
	389.2,203.7 388.9,203.3 383.9,196 383.6,196.1 388.5,203.1 388.7,203.5 391,206.8 397.7,216.4 398,216.8 399.7,219.2 400.1,219.7 
	416.4,243.1 416.8,243.7 421.3,250.2 421.6,250.7 439.6,276.4 439.8,276.3 422.2,251 "/>
<polygon class="st1" points="427.1,267.8 414,246.2 413.7,245.8 409.1,238.2 408.8,237.7 396.7,217.8 396.4,217.3 395.3,215.5 
	395.1,215.2 391.2,208.7 387.7,203 387.5,202.6 383.5,196.1 383.3,196.2 387.1,202.4 387.3,202.8 391.2,209.2 394.7,215 
	394.9,215.4 396,217 396.2,217.5 408.3,237.3 408.6,237.8 413.2,245.5 413.5,245.9 426.5,267.3 426.9,268 433.8,279.3 434,279.2 
	427.5,268.5 "/>
<polygon class="st1" points="427.6,279.7 416.7,259.2 416.4,258.6 408,242.7 407.7,242.3 403.4,234.1 403.1,233.6 393.8,216.1 
	393.6,215.7 392.9,214.4 392.8,214.1 391.4,211.5 386.6,202.5 386.4,202.1 383.2,196.2 383,196.2 386,201.9 386.2,202.3 
	391.4,212.1 392.4,213.9 392.6,214.3 393.2,215.4 393.4,215.8 402.7,233.3 402.9,233.8 407.3,242 407.6,242.5 415.9,258.1 
	416.2,258.8 427.2,279.4 427.4,279.9 428.5,282 428.8,281.9 427.9,280.2 "/>
<polygon class="st1" points="423.1,282.4 419.1,273.9 418.9,273.5 409.3,252.8 409.1,252.3 403.4,240 403.2,239.6 399.2,231.1 
	399,230.7 391.6,214.8 391.4,214.4 391.1,213.6 390.9,213.2 385.7,202.1 385.5,201.7 383,196.2 382.8,196.3 382.9,196.7 
	385.2,201.6 385.4,201.9 390.5,213.1 390.7,213.4 391.1,214.2 391.3,214.6 391.7,215.4 398.6,230.4 398.8,230.8 402.8,239.4 
	403,239.8 408.6,251.9 408.9,252.4 418.5,273.2 418.7,273.6 422.5,281.8 422.8,282.5 423.7,284.4 424,284.3 423.4,283 "/>
<polygon class="st1" points="414.1,273.3 412.5,269.2 412.3,268.7 403.9,248.2 403.7,247.7 399.7,237.9 399.6,237.5 396,228.8 
	395.9,228.4 391.9,218.7 389.9,213.8 389.7,213.4 389.5,212.9 389.4,212.5 385,201.7 384.9,201.4 382.9,196.7 382.8,196.3 
	382.6,196.3 382.9,197.2 384.5,201.2 384.7,201.6 389,212.4 389.2,212.7 389.4,213.2 389.5,213.6 391.9,219.5 395.5,228.1 
	395.7,228.6 399.2,237.3 399.4,237.7 403.3,247.3 403.5,247.8 411.9,268.5 412.1,268.9 413.7,272.8 413.9,273.4 419.3,286.7 
	419.6,286.6 414.4,273.9 "/>
<polygon class="st1" points="407.7,266.6 407.2,265.4 407.1,265 399.8,244.6 399.6,244.1 396.8,236.2 396.7,235.8 393.5,227 
	393.4,226.6 392.2,223.4 388.5,213 388.4,212.6 388.2,212.3 388.1,211.9 384.4,201.5 384.3,201.1 382.9,197.2 382.6,196.3 
	382.4,196.4 382.8,197.8 384,201 384.1,201.3 387.8,211.8 387.9,212.1 388,212.4 388.2,212.8 392.3,224.3 393,226.4 393.2,226.8 
	396.3,235.6 396.5,236 399.2,243.8 399.4,244.3 406.7,264.7 406.9,265.1 407.2,266.2 407.4,266.8 415.3,288.7 415.5,288.6 
	407.9,267.2 "/>
<polygon class="st1" points="410.9,287.6 403,262.3 402.9,262.1 402.7,261.6 396.6,241.8 396.4,241.4 394.4,234.8 394.2,234.4 
	392.6,229.3 391.5,225.6 391.4,225.2 387.3,212.3 387.2,211.9 387.2,211.8 387.1,211.5 383.9,201.2 383.8,200.9 382.8,197.8 
	382.4,196.4 382.1,196.4 383.5,200.8 383.6,201.1 386.8,211.3 386.9,211.6 386.9,211.8 387,212.1 391,224.9 391.2,225.3 
	392.7,230.3 393.9,234.2 394,234.6 396.1,241.1 396.2,241.5 402.3,261.2 402.5,261.7 402.6,262.1 410.4,287.1 410.6,287.7 
	411.5,290.7 411.8,290.5 411,288.2 "/>
<path class="st1" d="M481.2,255.2l-1.3,0.7l-0.3,0.1l-9,4.6l-0.3,0.1l-0.4,0.2l-0.2,0.1l-8.6,4.4l-0.2,0.1l-7.1,3.6l-0.3,0.1
	l-0.3,0.2l-0.2,0.1l-0.1,0l-6.8,3.4l-0.2,0.1l-6.1,3.1l-0.2,0.1l-1.6,0.8l-0.2,0.1l-3.7,1.9l-0.2,0.1l-3.9,2l-0.3,0.1l-0.9,0.4
	l-0.2,0.1l-3.9,2l-0.2,0.1l-0.4,0.2l-0.2,0.1l-4.2,2.1l-0.2,0.1l-3.8,2l-0.2,0.1l-2.4,1.2l-0.2,0.1l-0.8,0.4l-0.2,0.1l-2.5,1.3
	l-0.2,0.1l-6.5,3.3l-0.2,0.1l-0.3,0.2l-8.9,4.5l-0.2,0.1l-1.9,1l-0.2,0.1l-6.2,3.2l-0.2,0.1l-7.5,3.8l-0.2,0.1l-1.8,0.9l-0.2,0.1
	l-4.8,2.4l-0.2,0.1l-3.1,1.6l0,0l-3.1,1.6l-0.2,0.1l-2.8,1.4l-0.2,0.1l-2.7,1.4l-0.2,0.1l-9.8,5l-0.2,0.1l-7.7,3.9l-3.7,1.9
	l-0.2,0.1l-8.2,4.2l-2.2,1.1l-0.2,0.1l-9.4,4.8l-0.2,0.1l-8.6,4.4l-0.2,0.1l-7.9,4l-0.2,0.1l-1,0.5l0,0l-29.3,14.9l-3.9,2l-0.3,0.2
	l-7.4,3.7l-0.3,0.2l-9.1,4.6l-0.3,0.2l-2,1l-10.6,5.4v7.9l3.9-2v0.1l244.4-122.4c0.8-3.7,1.6-7.4,2.2-11.1l-2.9,1.5L481.2,255.2z"/>
<path class="st1" d="M237.8,389.7v13.1c6.5,2.1,13.1,3.9,19.9,5.3l204.9-92.7c7.8-13.9,14-28.9,18.1-44.7L237.8,389.7z"/>
<path class="st2" d="M257.7,408.1c12.7,2.7,25.8,4.1,39.3,4.1c71.1,0,133-39,165.6-96.8L257.7,408.1z"/>
<polygon class="st1" points="309.8,167.2 311,170.6 311.1,170.6 311.3,170.5 311.5,170.5 311.6,170.4 311.9,170.3 312.1,170.3 
	312.1,170.2 312.4,170.2 312.4,170.2 312.7,170.1 312.7,170 313,170 313.1,169.9 313.4,169.8 313.6,169.8 313.9,169.7 314.2,169.6 
	314.5,169.5 314.8,169.4 315.2,169.2 315.5,169.2 315.7,169.1 316.1,169 316.5,168.8 316.7,168.7 316.8,168.7 316.7,168.5 
	316.3,168 316.1,167.7 315.9,167.4 315.7,167.1 315.5,166.9 315.3,166.7 315.2,166.5 315,166.3 314.9,166.2 314.7,165.9 
	314.7,165.9 314.5,165.7 313.2,163.9 310.7,164.6 309.1,165 "/>
<polygon class="st1" points="382.3,189.5 380.4,190 380.1,190.1 380.5,191.4 380.6,191.7 380.7,191.9 380.8,192.2 382.1,196.4 
	382.1,196.4 382.4,196.4 382.6,196.3 382.8,196.3 383,196.2 383,196.2 383.2,196.2 383.3,196.2 383.5,196.1 383.6,196.1 383.9,196 
	384,196 384.3,196 384.4,195.9 384.7,195.9 384.9,195.8 385.2,195.8 385.5,195.7 385.8,195.6 386.2,195.5 386.6,195.5 387.1,195.4 
	387.5,195.3 388.2,195.1 388.6,195 388.7,195 388.7,195 388.6,194.7 388.5,194.5 388.5,194.5 388.4,194.2 388.2,193.7 388.1,193.4 
	387.9,193 387.8,192.7 387.7,192.4 387.7,192.4 387.6,192.2 387.5,191.9 387.4,191.6 387.3,191.4 387.2,191.2 387.1,191 387,190.8 
	386.2,188.7 386.2,188.7 "/>
<path class="st2" d="M237.8,387.1l-3.9,2l3.9,0.7l242.9-119c0.5-2,1-4,1.5-6L237.8,387.1z"/>
<g>
	<path class="st4" d="M148.1,459.9c5.2-2.3,7.9-6.3,7.9-11.9c0-5.1-2-8.9-5.9-11.2c-2.7-1.6-7.3-2.3-14-2.3h-15.1v53.7h16.7
		c6.9,0,11.8-0.9,14.8-2.6c4.2-2.6,6.3-6.6,6.3-11.9C158.7,466.4,155.1,461.8,148.1,459.9z M124.5,461.7h12.7
		c5.4,0,9.5,0.6,12.2,1.9c3.8,1.8,5.7,4.9,5.7,9.5c0,5.4-2,8.8-6.2,10.5c-2.1,0.9-6.1,1.3-11.8,1.3h-12.7V461.7z M124.5,458.8v-21.1
		h11.7c5.1,0,8.9,0.5,11.2,1.6c3.4,1.5,5.1,4.4,5.1,8.6c0,7.4-5.3,10.9-16.1,10.9H124.5z"/>
	<path class="st4" d="M203.4,448.8c0-5.5-1.8-9.5-5.5-11.7c-2.8-1.7-7.3-2.6-13.2-2.6h-18.2v53.7h3.5v-24.9h15.6
		c3.6,0,6.3,0.4,7.9,1.3c2.1,1.1,3.4,3.1,3.9,6.1c0,0.4,0.1,1,0.1,1.8c0,0.9,0,2,0,3.4v12.3h3.9l-0.1-10.5c0-6.5-0.1-6.8-0.1-6.9
		c-0.5-4.8-2.6-7.8-6.3-9.1C200.6,459.5,203.4,455.1,203.4,448.8z M170,437.8h14.7c1.5,0,2.8,0,4,0.1c1.1,0.1,2,0.2,2.7,0.3
		c5.7,1,8.5,4.6,8.5,10.9c0,7.5-4.6,11.1-13.9,11.1H170V437.8z"/>
	<path class="st4" d="M234.2,433.3c-8,0-14.2,2.8-18.4,8.4l0,0c-3.7,5-5.6,11.6-5.6,19.6c0,8.1,1.9,14.7,5.7,19.6
		c4.2,5.5,10.4,8.3,18.4,8.3c8,0,14.2-2.8,18.5-8.3c3.8-4.9,5.7-11.5,5.7-19.6c0-8.1-1.9-14.7-5.7-19.7
		C248.4,436.1,242.2,433.3,234.2,433.3z M234.2,486.2c-6.9,0-12.2-2.5-15.7-7.4c-3.1-4.4-4.7-10.2-4.7-17.4c0-7.1,1.6-13,4.7-17.4
		c3.6-5,8.9-7.5,15.7-7.5c6.9,0,12.1,2.5,15.7,7.5c3.2,4.4,4.8,10.2,4.8,17.4c0,7.2-1.6,13-4.7,17.4
		C246.5,483.7,241.1,486.2,234.2,486.2z"/>
	<path class="st4" d="M288.9,433.3c-8,0-14.2,2.8-18.4,8.4l0,0c-3.7,5-5.6,11.6-5.6,19.6c0,8.1,1.9,14.7,5.7,19.6
		c4.2,5.5,10.4,8.3,18.4,8.3c8,0,14.2-2.8,18.5-8.3c3.8-4.9,5.7-11.5,5.7-19.6c0-8.1-1.9-14.7-5.7-19.7
		C303.1,436.1,296.9,433.3,288.9,433.3z M288.9,486.2c-6.9,0-12.2-2.5-15.7-7.4c-3.1-4.4-4.7-10.2-4.7-17.4s1.6-13,4.7-17.4
		c3.6-5,8.9-7.5,15.7-7.5c6.9,0,12.1,2.5,15.7,7.5c3.2,4.4,4.8,10.2,4.8,17.4c0,7.2-1.6,13-4.7,17.4
		C301.1,483.7,295.8,486.2,288.9,486.2z"/>
	<polygon class="st4" points="358.7,434.5 354.1,434.5 325.3,463.5 325.3,434.5 321.7,434.5 321.7,488.2 325.3,488.2 325.3,468.1 
		334.8,458.5 357.4,488.2 361.7,488.2 337.1,456.1 	"/>
	<polygon class="st4" points="368.2,434.5 364.7,434.5 364.7,488.2 396.4,488.2 396.4,484.8 368.2,484.8 	"/>
	<polygon class="st4" points="408.8,460.9 392.4,434.7 392.3,434.5 388.3,434.5 407,464.5 407,488.2 410.4,488.2 410.4,464.7 
		429.1,434.5 425.1,434.5 	"/>
	<polygon class="st4" points="469.6,434.5 469.6,481.9 437,434.5 433.8,434.5 433.8,488.2 437.2,488.2 437.2,440.9 469.7,488 
		469.9,488.2 473.1,488.2 473.1,434.5 	"/>
</g>
<g>
	<rect x="121" y="496.8" class="st4" width="2.8" height="39.8"/>
	<polygon class="st4" points="159.1,531.4 135.2,496.8 132.6,496.8 132.6,536.6 135.4,536.6 135.4,502 159.3,536.6 161.9,536.6 
		161.9,496.8 159.1,496.8 	"/>
	<path class="st4" d="M192.8,498.7c-2.7-1.3-7-1.9-12.8-1.9h-9.5v39.8h9.5c5.7,0,10-0.7,12.8-1.9c5.9-2.8,9-8.8,9-17.9
		C201.7,507.7,198.7,501.7,192.8,498.7z M180.4,534h-7.1v-34.5h7.1c1.6,0,3,0,4.2,0.1c1.2,0.1,2.2,0.2,3,0.3
		c2.6,0.5,4.7,1.4,6.2,2.8c3.3,3,5,7.7,5,14c0,7.8-2.4,13-7,15.4C189.4,533.3,185.6,534,180.4,534z"/>
	<polygon class="st4" points="211.6,517.2 229.1,517.2 229.1,514.5 211.6,514.5 211.6,499.5 233.6,499.5 233.6,496.8 208.7,496.8 
		208.7,536.6 234.2,536.6 234.2,533.9 211.6,533.9 	"/>
	<path class="st4" d="M251.5,496.8h-11.2v39.8h2.9v-17.9h8.2c2.8,0,4.8-0.1,6.2-0.4c2.3-0.5,4.2-1.4,5.5-2.7c2.1-2.1,3.1-4.8,3.1-8
		C266.1,500.4,261.2,496.8,251.5,496.8z M243.1,499.4h7c2.8,0,4.9,0.1,6.2,0.3c4.6,0.7,6.8,3.2,6.8,7.7c0,4-1.4,6.5-4.2,7.7
		c-1.5,0.7-4.5,1-8.9,1h-7V499.4z"/>
	<polygon class="st4" points="275.2,517.2 292.7,517.2 292.7,514.5 275.2,514.5 275.2,499.5 297.2,499.5 297.2,496.8 272.3,496.8 
		272.3,536.6 297.8,536.6 297.8,533.9 275.2,533.9 	"/>
	<polygon class="st4" points="330.3,531.4 306.5,496.8 303.9,496.8 303.9,536.6 306.7,536.6 306.7,502 330.4,536.4 330.6,536.6 
		333.1,536.6 333.1,496.8 330.3,496.8 	"/>
	<path class="st4" d="M364,498.7c-2.7-1.3-7-1.9-12.8-1.9h-9.5v39.8h9.5c5.7,0,10-0.7,12.8-1.9c5.9-2.8,9-8.8,9-17.9
		C373,507.7,370,501.7,364,498.7z M351.7,534h-7.1v-34.5h7.1c1.6,0,3,0,4.2,0.1c1.2,0.1,2.2,0.2,3,0.3c2.6,0.5,4.7,1.4,6.2,2.8
		c3.3,3,5,7.7,5,14c0,7.8-2.3,13-7,15.4C360.7,533.3,356.8,534,351.7,534z"/>
	<polygon class="st4" points="382.8,517.2 400.3,517.2 400.3,514.5 382.8,514.5 382.8,499.5 404.9,499.5 404.9,496.8 380,496.8 
		380,536.6 405.4,536.6 405.4,533.9 382.8,533.9 	"/>
	<polygon class="st4" points="438,531.4 414.2,496.8 411.5,496.8 411.5,536.6 414.3,536.6 414.3,502 438.1,536.4 438.2,536.6 
		440.8,536.6 440.8,496.8 438,496.8 	"/>
	<polygon class="st4" points="445.8,496.8 445.8,499.4 458,499.4 458,536.6 460.9,536.6 460.9,499.4 473.1,499.4 473.1,496.8 	"/>
</g>
</svg>
